<mxfile host="Electron" modified="2024-02-27T20:09:26.854Z" agent="Mozilla/5.0 (Macintosh; Intel Mac OS X 10_15_7) AppleWebKit/537.36 (KHTML, like Gecko) draw.io/22.1.16 Chrome/120.0.6099.109 Electron/28.1.0 Safari/537.36" etag="L3Sk80Aep5ddp4YbeZSM" version="22.1.16" type="device">
  <diagram name="Page-1" id="nGpBcRN1EkOQ-8aKVeWx">
    <mxGraphModel dx="2074" dy="1214" grid="1" gridSize="10" guides="1" tooltips="1" connect="1" arrows="1" fold="1" page="1" pageScale="1" pageWidth="850" pageHeight="1100" math="0" shadow="0">
      <root>
        <mxCell id="0" />
        <mxCell id="1" parent="0" />
        <mxCell id="pP8O4rAKiQuBhvKMOiU7-1" value="" style="shape=image;verticalLabelPosition=bottom;labelBackgroundColor=default;verticalAlign=top;aspect=fixed;imageAspect=0;image=data:image/png,iVBORw0KGgoAAAANSUhEUgAABLAAAAEOCAYAAACZ2e5tAAAAAXNSR0IArs4c6QAAIABJREFUeF7tnQnYd9XU/79vc/1L81yEkgwRDUKUSDJHIjJE5lnmyBuJjGUeM4cyZUhUKoVCJUMJkWiepElv8T9fz3l4hvt+7t+w9z5rn/NZ1+Xqvd7nnDV89rnP75x11l7rf4RAoByBlSU9QtIXy5nEEgQgAAEIQAACEIAABCAAAQhAAAK1E/if2gPA/2oILCXpBknLS1pd0jXVeI6jEIAABCAAAQhAAAIQgAAEIAABCHRKgARWp/gHZXwHSSe3Eb9Y0vsGFT3BQgACEIAABCAAAQhAAAIQgAAEIDAxARJYE6PjxDEJ3CrJVVjzZUtJvxxTB4dDAAIQgAAEIAABCEAAAhCAAAQgMEACJLAGuOgdhLyXpM8vYvcUSa7KQiAAAQhAAAIQgAAEIAABCEAAAhCAwBIJkMDiAslNYE1Jly1SfTXf5lNmSGzl9gf9EIAABCAAAQhAAAIQgAAEIAABCFRGgARWZQtWobuflvTUWfz+taS7VRgTLkMAAhCAAAQgAAEIQAACEIAABCBQkAAJrIKwB2hqW0mnzRH3gZIOGCAbQoYABCAAAQhAAAIQgAAEIAABCEBgRAIksEYExWETEThR0gPnOPMGSatI+udEFjgJAhCAAAQgAAEIQAACEIAABCAAgd4TIIHV+yXuLMBdJR0zovVfSbr7iMdyGAQgAAEIQAACEIAABCAAAQhAAAIDI0ACa2ALXjDcSyWtM6K9f0laVtKtIx7PYRCAAAQgAAEIQAACEIAABCAAAQgMiAAJrAEtdsFQj5T0+DHtXT5GwmtM1RwOAQhAAAIQgAAEIAABCEAAAhCAQM0ESGDVvHoxfV9DkquvlpnAvXtLOmOC8zgFAhCAAAQgAAEIQAACEIAABCAAgR4TIIHV48XtKLRvSXr4hLa9lXA1SddOeD6nQQACEIAABCAAAQhAAAIQgAAEINBDAiSwerioHYa0jaTTp7S/f9MP66ApdXA6BCAAAQhAAAIQgAAEIAABCEAAAj0iQAKrR4vZcShLS7pB0nIJ/FhX0mUJ9KACAhCAAAQgAAEIQAACEIAABCAAgR4QIIHVg0UMEsLzJX0gkS+HSnppIl2ogQAEIAABCEAAAhCAAAQgAAEIQKByAiSwKl/AQO7fKGmFhP48WNLxCfWhCgIQgAAEIAABCEAAAhCAAAQgAIFKCZDAqnThgrn9Dkn7JfbpN5Lumlgn6iAAAQhAAAIQgAAEIAABCEAAAhCokAAJrAoXLZjLG0i6UNJSGfxyUuxdGfSiEgIQgAAEIAABCEAAAhCAAAQgAIGKCJDAqmixgrp6qqT7ZvLtIkkbZtKNWghAAAIQgAAEIAABCEAAAhCAAAQqIUACq5KFCurm/SX9MLNvn5f0lMw2UD8sAqtLulJSLfe/WyStJOn/hrVMRJuYwPaSfpRYZ051R0p6Qk4D6IYABCAAAQhAAAIQmJHA/2taBF0XkU0tL3AR2Q3dJ187f5a0UWYQt0paq5lKeE1mO6gfFgFvT3XvtlrkoU2l4/dqcRY/wxFYtr2HOhFag9wkacUaHMVHCEAAAhCAAAQg0EMCJLB6uKhDD2kPSV8uBOFmScsXsoWZ4RBwcjRH77ZcBJeW9M9cytHbawLbSjqtoggPlvS6ivzFVQhAAAIQgAAEINAnAiSw+rSaxKK1JV1WmMPWkn5e2Cbm+k1gT0lfrCjEZ0r6ZEX+4moMAutJujiGKyN54STtcpKcYEYgAAEIQAACEIAABMoTIIFVnjkWMxI4ukkmPTKj/plUXy5pncI2MddvAq6+urbZSugbdC2yuaTzanEWP0MQ6OJ+PU3g7nno3ocIBCAAAQhAAAIQgEA3BEhgdcMdqxkI3KvDSqh9JB2eISZUDpfA7SWdX1H4x0ratSJ/cbVbAjtIOrlbF8ay/oPG3weNdQYHQwACEIAABCAAAQikJkACKzVR9HVGwC8YO3Zk/V+SvB2m9PbFjsLFbCEC35D0qEK2UpjxC77/DhEIzEXgm5IeMddBgf59U0l/COQPrkAAAhCAAAQgAIEhEiCBNcRV72HMTw9QAeUeQO4FhEAgFQFvJfSY2Fqmnv24mUh431TBo6e3BJ4s6XMVRXecpIdU5C+uQgACEIAABCAAgb4SIIHV15UdUFzLSLpBksexdy1uIn9F105gv1cEjpL0uIoi2r/5WzyoIn9xtSyB/5F0U9sMvazlyax50qzv6+5Jh0AAAhCAAAQgAAEIdEuABFa3/LGegMBHJD07gZ4UKr7bjIR/WApF6IDAAgTcHH2zSojcKGmlSnzFzfIEatsW+6TKJoKWX1EsQgACEIAABCAAgXIESGCVY42lTARcfRVpi9UTJB2ZKVbUDpOAt+WdWlHoJ3XYj64iTIN09fqKEpy/knT3Qa4SQUMAAhCAAAQgAIGYBEhgxVwXvBqRwDEBJ59dLmmdEf3nMAiMSuDbknYb9eCOj7ul3XZ1Tcd+YD4WAU8d9PTBWuQBkn5Yi7P4CQEIQAACEIAABAZAgATWABa5ryHevp0K5Z4q0eRASQdEcwp/qiawtaSfVhSBtz1uXpG/uJqXgKtkXX0V8X49U+QnNMmrnfMiQTsEIAABCEAAAhCAwJgESGCNCYzDYxBw4/ZLJa0Rw53FvLhV0lqSqEAJukCVuvWe5pp6aUW+u9rmlIr8xdU8BDxgw83Qa5F/tffvq2pxGD8hAAEIQAACEIDAQAiQwBrIQvctTH8Z92jzyPI9SQ+N7CC+VUegtioWbyVcpZ06Vx1sHE5G4LGSvppMW35Fr2n6Kr49vxksQAACEIAABCAAAQiMSYAE1pjAOLx7Ap5w5q0oNQg9VGpYpbp8fLCk71fk8oslva8if3E1LQEnXT1ooxb5h6QVanEWPyEAAQhAAAIQgMDACJDAGtiC9yHcVzZTrA6pJJBrJa1aia+4WQeBpSR5i2ot8k9JS9fiLH4mJ7CPpE8k15pP4V5N77Yj8qlHMwQgAAEIQAACEIDAFARIYE0Bj1PLE/BI87PLm53K4lMlfXYqDZwMgYUJ3FnSORVBObSy3l0VoQ3tam3XqRPDy0ly0hWBAAQgAAEIQAACEIhHgARWvDXBoyUQOEmSt+XVJFe2DYFr8hlfYxPwJLcLJW0Y282FvPMUxZ9X5C+uTk/gB5J2nF5NMQ1bSDq3mDUMQQACEIAABCAAAQiMS4AE1rjEOL4zAg+X9K3OrE9n+DBJL5lOBWdDYCECTmJd12yndU+4GuQsSVvV4Cg+JiHwGElfS6KpjJKvS3KzeQQCEIAABCAAAQhAIC4BElhx1wbPFiHgF+B7VErFY9lv11bNVBoCbgck8H5JLwjo12wu7Srp2Ir8xdXJCfxY0n0mP73omR4Ksrqk/ytqFWMQgAAEIAABCEAAAuMSIIE1LjGO74TAO5pqk/06sZzO6KmS7p9OHZog8G8CV7Uv3zXg+KukjWpwFB+nIrB/07j/zVNpKHuyK8V2L2sSaxCAAAQgAAEIQAACExAggTUBNE4pS8BT127uySSzlSX5az8CgVQEDmymEr4hlbICej4uad8CdjDRHYFbKrpf06Owu+sEyxCAAAQgAAEIQGBcAiSwxiXG8cUJ1Ni4fTZIf5F0W0neUohAIBWBEyU9MJWyzHp87W/cJLFcjYX0j8CvJN21orAe1mx1/G5F/uIqBCAAAQhAAAIQGDIBElhDXv1KYv9HO9q8EnfndPO5kj4y51EcAIHRCdxT0pmjH975kT9pemFt37kXOJCawCrtltZlUivOpO8rkh6fSTdqIQABCEAAAhCAAATSEyCBlZ4pGhMR8JS1iyStl0hfJDWO6dJIDuFL9QS8Ne+ZFUWxjaSfVeQvri6ZgO/X50vapCJQXIMVLRauQgACEIAABCAAAUkksLgMwhK4n6RTwno3nWPvlvSK6VRwNgQWIrCZpPMqYnJBZcmOitB24up9JXlQRS1CL7ZaVgo/IQABCEAAAhCAwH8JkMDiaghJwFtRrg3pWTqn3CfmN+nUoQkC/26O/tGKOLxI0vsr8hdXZyawUmXDKdyHbdXmI8LfWVAIQAACEIAABCAAgaoIkMCqarmG4+zTJR3e83BPa5oH36fnMRJeWQLLSrpJkid31iBOJHgy5w01OIuPsxJwNek7K+LzEEnHVeQvrkIAAhCAAAQgAAEIzCNAAosrIRyB20j6Wziv8jj0vKbH14fzqEbrQAms3jbSriV8DzTwYAOkTgJOmt5ckev/lLR0Rf7iKgQgAAEIQAACEIDAfwmQwOJqCEfAL7TPDudVHoeulrRGHtVoHSgBN9P+azPpcv1K4r9VUi1T6ypBWtTNQ5uE6YuLWpzOmCd2/mI6FZwNAQhAAAIQgAAEINARARJYHYHH7MwEHtpsq/vuwOC8RdIbBhYz4eYl4KTolXlNJNV+oqSdkmpEWQkCnuJ3eglDiWxcL8n9Fb11FYEABCAAAQhAAAIQqI8ACaz61qzXHp8pyV/IhyTXtS9VQ4qZWPMT+HaTXNgtv5lkFpzAciILqYfALyXdrRJ3vc1x+Up8xU0IQAACEIAABCAAgZkJkMDiyghD4KmSPh3Gm7KOUIFSlvcQrHkr4WXNlL+1Kgn2KknrSrqlEn+H7ubekj5TEQR6rVW0WLgKAQhAAAIQgAAEZiFAAotLIwyBCyVtFMabso54S8vtJV1Q1izWek7gVZLeXlGMj5T0rYr8HbKrNd2vnch1chSBAAQgAAEIQAACEKibAAmsutevN94fLckvr0MWT1507yJPyUIgkIqAK5s8mbAWsa/X1OLsQP38oqQ9K4rdjeZfWpG/uAoBCEAAAhCAAAQgMDMBElhcGZ0TWE7SjZKW6tyT7h3YQNLF3buBBz0i8GRJn6soniMlPaEif4fm6sZtpai3qNYgrmrdpAZH8RECEIAABCAAAQhAYE4CJLDmRMQBuQn8kReM/yB29dXKbUIvN3f0D4dAbRUzO0s6YTjLU1Wkv2sSoptW5PFWks6qyF9chQAEIAABCEAAAhCYnQAJLK6OTglsJum8Tj2IZ/ygppH1/vHcwqOKCdxO0p8q8v90SdtV5O9QXN2mmWzptalF2DpYy0rhJwQgAAEIQAACEBiNAAms0ThxVAYCS0u6UtKqGXTXrtKj6X9dexD4H4rAOyTtF8qjJTuzh6SjKvK37656y6C343kLYS1yZ0m/rcVZ/IQABCAAAQhAAAIQmJMACaw5EXFALgLPkfThXMor1+vx9E+rPAbcj0XAzdGdMK6ld9EVktaOhXDQ3rxE0nsrIvCm5lr/34r8xVUIQAACEIAABCAAgbkJkMCamxFHZCDgaXt+mUZmJ7CjpJMABIGEBO4n6ZSE+nKr+qSkZ+Y2gv45CdxGkqek1iL/krSipH/U4jB+QgACEIAABCAAAQiMRIAE1kiYOCg1gbc2LxevTa20Z/rOkXSXnsVEON0TOFfS5t27MZIHTkSsJOmmkY7moFwEPipp31zKM+j1B5KrM+hFJQQgAAEIQAACEIBAtwRIYHXLf5DW15F0SUVbmbpcpPdJenGXDmC7dwRWkXRtRVH9SJIrx5BuCCwj6eaK7teXS1pXkpOfCAQgAAEIQAACEIBAvwiQwOrXelYRzfebbUwPrsLT7p28RpJ7FyEQSEngWEm7pFSYUdc/JXngA9INgRMlPbAb0xNZdfLqsonO5CQIQAACEIAABCAAgegESGBFX6Ge+be3JDcoR0YncISkvUY/nCMhMCeB1SrbYuVE7pqSnMxCyhFw4soJrFrk5MqSbbVwxU8IQAACEIAABCAQhQAJrCgrMRA//lzZGPYIy+LtO8tHcAQfekXgoGZr2Osqiugpkj5fkb+1u+qqN2/Hq6UC9HpJK9cOPaH/fri7e/t7u7EkN+IfRbz10ut+oaTfSzqfZvijYOMYCEBgCQSWkrRp+7/bthOGR62svq69H10g6beVfXzjoohHwB9wN5N0R0kbSnJbjVHEv40ePub32D+01+Ito5zIMVkIkMDKghWlMxF4kaTDQDMRgavaH3wqUCbCx0kzEPgfSX4g9MttLbIW00uLLdWzmoe7jxWzNr0hJ2MPnl5NNRr8ErhN+3HDExcfJWlnSX6oyyVXNDa/3VS5/UDS/7WJrp9KcoUkAgEIDJeA70HbSdqgRbC9pEdKul1mJN+TdHSb1PLU2TPbpHtms6gPTMDX3L3aScT+PfR1+DBJ7ueZSy6W9M0FJsdfKul0SX/PZRC9/37WcXI7nPjlCukPAX8Z98MvlUSTr6kbWbuhNQKBVAR2b6o0vpJKWQE9L5D0wQJ2hm7CVVdOmtcif5W0US3OjumnKxf8QO4ttH4od+WkE7nR5OzmYXK/9kXSiXFXcSEQgED/CKzaVlKt0N6PIvZIdGXMyyX9uL0nuWIG6RcB5wk2aX8b793810Ovlg0YopOqvhadbPlT+y4c0M3qXCKBVd2S1enwz9uH7zq9j+O1vyDcGscdPOkBAVdP+IG0FnHF2F9qcbZSP49rq3lqcf+FTYXqB2pxdgQ//cHHCasvS9p2hOOjHvJRSa9sp1jeFNVJ/IIABJZIwB+e/b+XNUe9qWJW3vrlRIfvRd5yzqTauhbTCSsnLZZrKqpOa5OodUXwX2/5bZx+5UhgTc8QDXMQ2FqStxkg0xN4RLuFY3pNaIDAPAJbNduPzqgIhrcvPagif2tzdddmK8gxFTn9C0n3rMjf2Vz1xwkPONmprbDKud2hNK4bmi/Q17YVWvSxK00fexCYjIArq/z36v55o/YJmsxS2bP8Edi9jE6S9ISyprE2IQEnfB7dftgZtXfahKaKnubfxr+1v41fKGq5fmMksOpfw/ARuBGsm+Uh0xNwD6y1K9veM33UaMhN4P3Nlh9vz6tF9mm2VR1ei7OV+XmupM0r8vkOkv5Ykb8LuuotOE5a3U3SFpXGMK7b3trjLRXeDu+KDqog5ibofmMRE5o1tfrYren5+IxmC/o6kuy3t0n7/3al42wvxDXFN/dVNNoR/pt0UseVn96+PATxoAr/hrhX0o1DCLiSGN3b7M5tw/VKXJ7KTf8WerfSsZL2n0rTME4mgTWMde4sSmfMv96Z9X4a/lwzAWPvfoZGVB0RWKndl+9GrDXILyVtWYOjlfm4Z/PA+MWKfH5D82L/lor8tat+KXyPpPtKcnXy0OVLkr7WJPD8X2RmAiSwRr8yvB3eA4PcG+cubSJm0oqNoSSwXNnvpJX/N/Q+te6ZdbykN5JcH/2PLtGR7l/1v5IeIMk9f4cs/tBzVFsN749cyOIESGBxVWQj4H3KbgSccypSNueDK6ahe/AFqtC9Axqfa+pv8WpJh1TIOarLflnzoI01ojo4g1+uRrXPNYh7r+zRfOH3dYssTsBN398h6cNMbloMDgms2f9iXJn2YknrS3p2u90t1d9XnxNY3hLo3oGv5xl91svlve2Qm1NSXVDomZGAJ1Y+RdLz4TMjAVcFesLyRxpGl8HoPwRIYHExZCNQ27akbCAyKP5+swVjlwx6UTlsAp4edttKEHg8sXtzIGkIuLLzyWlUFdHy3PaBroixKYzs2HzJd3LY/0VGI+CH9c9KOme0w3t/FAmshZd4g2abjV96nQzeJuPq9zGB5XYeThbU9LEq4xKPpPo3kl7VVPN9h6qskXiNcpD/tlz5905JdxrlBI75NwFP4XY/MPf+HLqQwBr6FZApfn/Fd5NEJB8Bf813iSkCgVQE7iHprFTKCuhx83lXtiDTEXAi0I1EaxEnWr1FKKp4m6B7d3jggPvsIJMR8LZCTzG8cLLTe3MWCax5farcm++rBXv09SmB5em9b5f0pN78VZQP5B/Nlq7tJJ1NImti+P5t9OCgnwTt6zdxYIVP9AAC94J1/7ahCgmsoa585rjdfM8NEZF8BC5ttlusl089mgdKwC+NNU3m8RYSTxVCJifgvh/3mfz04mdGfrH0Pfni4kT6bdCVD+6n6b4gQ5QhJ7DmbxF8VwcLH/k+MyoOJ/78ofMxo57AcXMS8ETVdSXdNOeRHLAgAQ8t8Ycyt5dB0hA4ta3uHuJvIwmsNNcQWhYgsFGTGf5zO+kFMHkJfFPSo/KaQPvACKzVTCR0P5paxH32PEkKmYyAHyb9IF7Ly9oJknaeLNSsZ5nf75i4m42xr1Gv/cOzWYireKgJrO+1zZw9ZKQLqeWeOBsb9wZ7M1vts1w6ngj+63YQx81ZLPRL6elttfxQJluWXL0b2nYKLy9pNIAtElgBFqFvLvypGXF/u74FFTQelzSvxpegoKtTr1tuXvqSitz31pLzKvI3iqt+mPRWb99DahF/+Y7WyPTQZpvbM2mGXOQScnL9GU3vo28XsRbDyNASWF9uP8x1PRGv1gSWq608EGHTGJdv773w5F62Zs68zN6Ns1uTSJ10EmjvL56EAV7UTmX+UEKdkVWRwIq8OhX65i8+fphHyhE4uem18sBy5rA0AAL+4n19RXG6fNpTlSjpH2/R3MzXzbJrkfdIivSV8aFNA9ovVDa5sZa1nstPJ7CcZP/DXAf24N+HkMByssrbBPcNtMWoxgTWJ9sEbw8u+6pCcKP3/ZoeWcdU5XU+Zz20xM3GN8tnAs2zEHAbkGc11+N1PSdEAqvnC1wyPDcCvloSJaIlqc+zddemb5F/QBEIpCLw+Oa6OjKVsgJ6XteOGi5gqhcmauvV5N4ZUSrFnCx9jSRfc0i3BFz54AqIPkvfE1jub+Y+Te53FUlqSmC5KtEJg2gMI61nCV+8Bs+T5C2GQxRXWjmJ+tQhBh8sZn/gOSyYTyndIYGVkubAdXksr8eFI+UJeA+0X+78oItAIBWBPwaf9rZonJ609JdUwfdcj0fQv62iGD1YIEJC1SO/3fuEF8U4F48/3ty3skma49DrawLrtu1Hh73GgVHw2BoSWO7/6MofJ9SRGAQ8YMnbOD1pb0iyffsbveGQgg4e6+fae8Nfg/s5iXsksCahxjmLEdiCCqDOrwqXjH6icy9woE8Eavu7PkSSEzPIkgncUdLvK4LkqX4bBPD3DU2F8YEB/MCFxQl4G/G9JP2yh3D6mMDyx4YLgg+PiJ7AWluS+96QTI/5R+8t5h480fcJca662kWSp8UiMQm4L7WHq/VJSGD1aTU7jOWcpoz/zh3ax/S8kmUaJXIlpCbgQQE1jT12z4WakjOp12sUff4yvN0oBwY5xj3+3OuvS/G4alf5ILEJeCqvp/P2SfqWwDqtacK/TfDkla+fyAksD43wdjVadsT+S/dwGQ+Z6bN4EMwafQ6wB7H9q+1P/bIexDI/BBJYPVrMrkLZW9JnujKO3YUIvLEdmwwWCKQisEK7NaeWJJYrMLZMFXwP9bxA0vsriqvrIRUrS/IHmo0qYjZ0V3/ejrfvC4e+JLBcKfSril7ooyaw3Cjc1T1R/evL312qOFxB7KrnG1MpDKJnfUlORruaEqmDgNsf3L1p9+OEVu1CAqv2FQzg//mSbh/AD1yYV4XlHxOXlSMQSEWgtq1TNHSffeVdneaH6RrE1X9rdThNx1/Oz60BFD4uRsCVD64K78ODeh8SWB4087XKppJFSxCt2Lx8fqVJGjyMv/fqCLgvlids9qU69HGSPiLJPdiQugj8uO3Rdlldbi/mLQmsyhewa/f9onhQ105gfyECp0jaASYQSEzA4+rvkFhnLnVu5M5XwcXputHvwbmgZ9D70rbsPYPqOVXu1PYvmfNADghLwMlaj3OvvYFt7QmsB7XNnWvbZhQpgeUeNl9t+7yF/YPDsSUSuFnSK3swGc7bV528omVJvRf8hW0S64x6QxAJrIoXr2vXvbXomuaFaPmuHcH+YgQeIuk4uEAgIYEXVfbg9R5JL08Yf+2q3CvlWunfP/o1iL9Yr9eRo0+XdHhHtjGblsBVbYNhbyusVWpOYPlj2veaiad+XqxNoiSwXL3mD5OeNI3UTcAVoc9rE0A1RvIkSV+o0XF8XozA9e1v448qZUMCq9KFi+C2e5NQ6RNhJRb3wV+e3cwagUBKAi49vk9KhRl1efLP6h1uP8sY2kSqfyPJUyVrkSd39KBcW5VaLevZpZ/eWu+hBT/r0okpbNeawNq07XlV60fOCAksP8e5b82yU1w/nBqPwNMq6x3sv4VHSvpGPJR4NAWBW9uqzrOn0NHVqSSwuiJfud3btI2dKw+j1+7vQxVBr9e3i+DcO6mmCX/XSfK9qg99cKZZ75WarQv+2laLuE+Ip8mVltc2EzffWtoo9ooRuJekM4tZS2eoxgSWEy7uxekedrVK1wksb7l0Jaqb3yP9I+CteJ+sJCwnr46uxFfcHI+AP/C42v3y8U7r/GgSWJ0vQZ0O/FHSJnW6Phiv/dC7TrvNczBBE2h2ArU1dN+6+XJY8/ahFAv6d0mepleLOOFWemKTe14dz2SvWi6Rifz0b+K2Te+PsyY6u7uTakxg1XbPmWl1u05g+aOD74VIfwm4zYHbHUQWN2w/KrKD+DY1AVdieYuyP/rWIiSwalmpQH56G4q3oyDxCZzUNrGN7yke1kJgbUk1TS+xr+vWAjeDn7Xdrz/UXF/Pz8BhSSrv0m516vqFtXDYgzTn+4GHUdRUkVhbAuuHTQ/O+/fg6urqfuAXMw8ioedVDy6iOUJwdbi3rR8SNFRXiX08qG+4lZaApz578vIFadVm00YCKxvafipm62B963q3todCfZ7jcVQCTjB8IKpzM/i1p6QvV+RvKlfde+amVMoK6XHfMg8HKSX3qLAipxSbvtr5XfugXsvW4poSWO6L6v6ofZAuElhudu9ek/fsA0BiGImAEwePafqLfneko8sd5OemzzNtsBzwAJacvLq3pCsD+DKXCySw5iLEvy9E4H8lvREmVRHwmFTfkBAIpCKwnCQ/dNUiNZZHp2Dre7Xv2bXIUyV9tqCzvi/W2ti7IKZemvqDJDcZr0FqSWBt1H6998TTPkgXCazPSNq7D/CIYSwC7j90uw62zs/m5G3JyUjUAAAgAElEQVSbPpR+d1hzrCg4uA8EnEjdrYLesSSw+nC1FYrBN9c/FbKFmbQEPPr2i2lVom3gBPzyd15FPYPcLNXl8EORO0n6bUXBXlX4YdmVDu6N5u2DyDAJHCvpYRU8qNeSwPqUJE9X64uUTmC9uxmO9LK+wCOOsQm4b5xbNET4OEif47GXr1cnfEnSE4NHRAIr+AJFcu/Dkp4TySF8GZmAtxGtKunmkc/gQAjMTcAJLI/5rkWchP9zLc5O6edhTRn4i6bUUfL0u7d9qErZ9JbSPUoZw05YAg+Q5J5NkaWGBJZ/B/x70CcpmcByxcO3+wSPWCYicHa7Y+KWic6e/qSlmw99F0paf3pVaKicwAuDtwohgVX5BVbK/QdL+n4pY9jJQuDQprfMS7NoRumQCXh7Xi1bRr7R9pro+3rV1tfpakkeGV9KPi3J2xURCJiA+w39IjCKGhJYX+vhvbVUAmtFSTcEvv5wrSyBR0r6VlmT/7FGIrUj8EHNenp11IEnJLCCXjTR3PLWQVcvIPUS8EOwexchEEhJwH0StkqpMLOue0k6M7ONrtV7SqynD9Yg/2yrQ0uNb3ay1RWpy9YABx+LEPDWHVcoR23qHj2BtVLgl5xpLqBSCazTm+qrbaZxlHN7R+AhzSTP4wpHtW2zpfq0wjYxF5uAp6FuHNRFElhBFyaSW29qHuwOiOQQvkxM4KuSHjfx2ZwIgcUJ+CHfE0s8Pa4GuUzSujU4OqGPb2sawb56wnO7OO0Tzcj4ZxUyvIwkr38t12ohLJhpkvCRqzOjJ7B+IGnHHl5FJRJY7s34jB6yI6TpCHga3CbTqRjrbG8dvEjSOmOdxcFDIHBCs81+54CBksAKuCjRXPJNjf3Q0VZlMn/8hdlNi8+d7HTOgsCMBPZpvtI4EVGLvLOpGHhlLc6O6efFktYb85yuDnej2DsUNN63JtMF0Q3CVJdbd5YEOHoCK6p/0160JRJYbthNZfy0K9XP8z8gyX2ISsjhzZCup5cwhI3qCPi90RX90YYCkcCq7lIq6zAP/GV5l7DmhOSGJQxhY1AEftr0bdi6koj9wuVpP3+rxN9R3fQD7/NHPTjAcftK+nghPzYfWOLeWzPdEPhHkrxFzuLGwE5wugrtmvb/562Uq7Vf3hdMfG7QVtVE3T6Q47LxKHszMLtIEjVB5ASPPwQcEglWQl9yJrA8BdV/l64KHYpcIumkRaaZ+150hST3QfTWbjP3i6mrpP3hfPkWjrep3qd9xsi5LtHWYldJnpaaU1xdU3q7Ys545tLthMxZkn68wG+j77F+N/L16H50/q3036h7QPk3YcGqff8m7jTAwo612t0Wc/Et9e8ksEqRrtCOfzD8gjekH9gKl2kil0v8KE7kGCdVS2B3SV+pyPsjmqlZe1Xk71yu+sfcSYla7tfntNWgc8WV4t/9IHpjCkWBdbgJ+fmSXO7//sR+esulWwn4wX07SU5u9VV8D3t8sOAiJ7D6XKGfM1HibdMfC3adpXTHiXL39vprk4Q6uNkm7l46qcS/cR7C8Yj2Y6z7h+Vcq1R+T6LH93UPmcgpv5R0t5wGOtTtZJV7nnpLphOBLspw1WMq8W+hk/i3b6dHbpRKcUA9BwZrJ0QCK+BFEsElN7r1y9AqEZzBhywE/MfP5JssaAer1D3WHltR9P6i24empX54j1Y1MtdlsEvBybbehvG+uRyq7N9vlvS7ZriKt368qwPfnQB209+SW0BLhemBNX8uZWwEO1ETWH4+9HOi++f0UXIlRdxn6NKeAXOiwFvC/XfzsLaaqmSIbmOwn6RNezagw4mXuy9QKZSa6Wck7Z1aacf6fL/8fVM19aEOfvf97vzd9jp0Uqtv4gnXruyOICSwIqxCQB+8xSzlF5OAIQ7epdc2JbJu+IxAIBUBb8tzCXYt4qocV5rWLvduvkb/rKIg3ti89L65kL/eIudkT1/EWxt8335DkICcvHBvDD+s++G9D+K/pUhT4aImsDy5sW/bsBe8fnMlsI6R5Cr4Psit7VasHQIF85w2cVHzpFlzdVLOCaZc4vu1f09yXee5/J5Nr++THmDzntKGl2DPAy78t9GXJL+3XkaZOk4CK9CFHsUV39Q80nzFKA7hRzYC92rLa7MZQPHgCDy5+fr0uYqiflrmh8TcKPzw6f4hfpmsRezrtYWc9faV1xSyldvM9u39OuUWiFQ+e5vhk5recu7D1gdxz5MoyfioCSwnUvvytzXTNZvjxf4xkr7Whz+Q9u/d1Sbz++lFCssJA295drVIbTtJnIT5YPselpOpq89dRVu7OInuj3iuAIxYie4ek+4zdlTtoFv/X9pMcj40QCwksAIsQjQX3P/hyGhO4U8WAj9seqY8IItmlA6VwG0q+yp/ZdMzyM0paxX38fp8Rc6/QtK7C/nbh0piJyf3kOQvuREfzhddyjUlPbP5APb2Qmucy4wbbDsWJ4+6lqgJLCdS5zfZ7ppRDvs5EliuYPA2nJrlCU3C4JsdbBOclNlDmt59rnqLXgVzhqQ92+1vk8Y66nm+tl2ZXEvPzJnicgX9oypqQO9enP5g+uFRFynocd4m7G32XQsJrK5XIJh9N6C7MJhPuJOXwMObrzDfyWsC7QMj4KSopw3VIn7ZrrGSwF+WS1UypVhL90mxz9enUDaCjtp6si0aUrSmqSMg/88hfsB9fdPE2ZMmaxV/NXdT/K4lagKray657adOYNVefXW0pOe2k0xzs0+t34nWlzX9sQ4KuNX5121z7JJDcDzwo+YeTW5B4LWMWI0817V7p7ZvpYcQ1CovD7BVkwRWrVdPJr8/0owSfXYm3aiNSaDkNLCYBPAqNQFvQ/bIbPfEqkFc2eLGuq7Gqkk+3U5jqsVnN6P9VSFnXVV3eSFbqc2c2gzYeJWkH6VW3IG+F7UvGrVt45mPyq0UbuqA24ImSWB1swCpE1gnNpWUD+wmlKmseovgM5ppeF+fSkuMk30f+qmkzQO44yrPAzpIBDhx5QRWjeL3FfeUqu1ZbSbWHnj05Uqr4DxAxom4LoUEVpf0g9m+a8GXi2ChD94df81wY2UEAqkILNdW2tRSon5K+2CUKv7cejz22uOvaxH3E3JfoVLiEe6RGnGPGrcrF3cc9eCKjjs3yEvjuMgeKul7456U+HgSWImBjqguZQLL2wa9fbA2+UnTpN1/AzVV+o7C2FXX/kjQlRzfNvJ3E/XSUus2VhdYuAKwT7Je2xPPE7FrE2/f9FbiroQEVlfkA9r9tqTdAvqFS/kJ+EfU09gi9PvIHy0WShH4VvO101tUaxH3TLqoEmdrul/7/lJyIpRfPGvoF7XgpeZ77+6S/DfTV3mfpBdWGJwrSr39tSshgTU3eVcJOcni6W0Liu/nvhe4n9mCg4n8YcXDJFyRM1uiKmUCyx9I7jd3GGGO8PV+ck+T6fMhOxny3oJ93MzU2wXvOcN1Wmrha0ykepugP7AfUgpSB3Z+3k73S3nPyR2G2w25VUBXv40ksHKvcCX63VjuU5X4ipt5CLhJ8IPyqEbrQAnUlkj4UyV9Ify17scVXVPeNujtg6XE1V61bF+dz8QJvi6+xpdak/l2ntdO2Cptdxp7Hmd/+DQKpjyXBNbiAG9oElbuw/LJ9p+cpFo0ebUk7P5tcmLS/3Myy/103CNpQUn5MtnVS96kl95TKhsOMmmcJSuZ129bK0zqa4rzXtde6yl0ldKxtSQnePouH28HoNQUZ5fPLSSwarpSMvp6adsDJqMJVAcnULpKIjgO3EtEwBNXnpNIVwk1u0o6toShKWzUdL/211NP3yklnoLp3lfewlqL+CumJ/sMRZ7ecUJoXM7eRrX9uCclPJ4E1jyYbqr/F0n+0OAJajnEleibtOv9iUQGPF1uq0S6SqhxjyFXjA1FNpXknj65xEn7zzRbFp107Vqc6E2ZmM0dz2aFpjLmjmNU/bUlGLuc4k0Ca9SrqsfH0bi9x4s7Zmhu7HjHMc/hcAgsiYAflv5QSWXT/Djcl8BJoojiB+G9Izo2i08u/XePvVJy52YUuRu91iIlG9tHYuKm0POrZyL5NZsva0i6uiNHh5rA+lvb8+ZMSb/tiP20Zj397qq2RcO0ukqc/8ieb2OejaEbm7unpF+KU8n/ttWmrgiOIB6ocVgER0b0YWjJq/lY/Ly0/4iMIhzmvx1/VCgtJLBKEw9oz5MwVg7oFy51Q2DbdkpLN9ax2kcCrmo6pqLAPthU8bwgoL/u2eKH4Vqqi37WQSP1mrbqDGVrxGx/Si/tYALXpH/W7+iw6fPQEljfl+TtNJ7QVbu4Afp3KwnCWzLfU4mvOdx05ZmvPScdpxEnXF117mmHkeQ3kraI5NAsvri68gGSTqvA11wufqiihvXuJedCmNJCAqs08WD23EelxukHwTD2zh2/KPdt6kzvFqmygGobIe4RwTm3FUyyfF9pG31Pcm4X5zxO0lcLGt5S0i8K2pvG1F7NVL4jplHQk3NrGUZwsaQNOmI+lASWt615MlxN/f3muiTcl8t9tqLLN5opiY+J7mQB/6apUjqvGQrwruY+8dECfo5rwokrJ7BqEFcfuSfd0MV/k570V4Ms3cHgHBJYNVwZmXws2bwwUwiozUSg66a1mcJCbYcEtmvGRruXTC3iaXDeThFFamvc3kX11bM7+hI47jXiF/T7jntSj4+/RNK6FcR3145eAvuewHJV6QGS3C+xT7K5pHMrCMiJDb8P1FS9mhOrkyfuRTSq3NhMufSE1VePekIHx32s6R/3rA7sjmvSlZf7jntST4/3zii3snBfvujyYEnHF3aSBFZh4FHMOVs6hIlHUXjX6MfqkjyaGoFAKgJ+yHthKmUF9PiBL1Uj32ncrW2ao2PtordTDS9grmxdk9/fhf4cVpTkVgZ+LoksR0t6dAcO9jmB5SpEVyP2UXaU5OnOkcX3zI2bpMFfIzvZgW8eFrDhHHbdEN0DQ3zcOBMwOwjn34mQdbowPIbNi0ZgPoa6XhzqCak3VfDb6Amu7y1MnARWYeBRzO3W9CZx6T4CgdkIuAy6pulxrGR8Av6SdH18N//joV+qPdWua6mt4XXprYNen1p6zawi6bquL6iA9t8i6fUB/VrQJTcVX60DH/uawNpJkreW91X8kTh6UtZDL2ptkJ/zuvF24SUl9ZwQcpNxPyPUIDV83LmtpAtrgFnYx8ObJume3BtZnMwtfa8jgRX5isjkmy8yfwWuoSwxEwLUjkhgqBNpRsTDYRMQ8EvLCROc19Up3k7Q5UQYV195ilUXL86TMu8iSeNtBxF7jyzI8PRmmIG30iKLE3CfID+XpJwCloOzv4iXrrboYwLL9zMnBPsq3m76q+DBMXV6yQs0Wz8sV9adFHxtF3TP7RAeHtzfg8fcthk8nOTunSXpHsm1plXoIQjuY1hKSGCVIh3ITm0jOgOhG5wrZ0i69+CiJuCcBJyQ8ZfN9XMaSajbL9UeatCVvLP5yvuKroxPYHePpp/KUROcN+0pf263wkyrJ9f5/mK/Xi7lPdF7f0k/DB5LF73x+pTAcmPixw9gC+2ekr4Y/Fp23zn3H0NmJuAeRP799zOL5Y1tr6vaWmt4sIkHnESWvie0p2XvnpmnTqsk8/mvlfS2zDYWVE8CqyDsCKZqaSoZgRU+zCPwTEmfBAYEEhJwf6SzE+rLrep77Ra13HYW1b92ZS8YXfV3clWMX/IjSxc9IiLzmM236NUC3m7lbVclpS8JLCfjX1kSXIe2ok+M/WZFE846XEZtLclb+D1k4IouHZnCdvStrE5o++8FWTKBY5pBSLsGhlS64IEEVuCLIYdr35H0sByK0dlbAq6W2ai30RFYVwScFHpIV8bHtOv+EW6AWvoB1uXY9xvT164ONyM/UHgiU2l5QzOq/sDSRsewd4GkTcY4fsiHbirpd4EBePugE6YlpQ8JrKFtEYrcc8j9anyvdnNopN8EtmoSlU4sRBXfTz3EI/oHqAj8vEXv5AiOLMEHtwIode8jgRX8Ykjp3r2asfA/T6kQXYMh8LWmYmb3wURLoCUIuBffDZKWK2EsgQ1vG1irYP+bGnqoLIjVI5Q9SrkLeUfTGH2/LgyPaNO+vWvEYzls3hZjN1GOKr5nlXzhqj2BdWgz0filURczg1/bNh+KT8ugN5XKwyS9JJUy9IQm4I8nbo4eVe4T/G8lGrfvd/icNQqLktV0JLBGWZGeHOOGkn4pQiAwLgF/sfNDe+nmteP6yfF1EXh7k8R6VUUu376ZBvOnQv66wa7t1SDeorBsh45eIsn9XCKKv0b6qyQyOoGwD6ZtCK4Qu9Po4Ux9ZM0JrHMk3WVqAnUp8HazNwV22dXElwf2D9fSEXDvRa93RPF9zVOeqQQcfXWe1Pz2fGH0w4sf6YmJ+xSyGvY5YX7TvEIcem/GL4l+WUQgMCkBthJOSo7zZiPgpMfNFeEplch1nwP3O6hFPiPpaR06W6pkfZIQn1PBdMRJ4sp5jp///hK4Cqv0yPCaE1jeHjS0F1Q3Mn51zj+QKXR7ep6n6CH9J+Am9Fd3sOV5VLJOxDx51IM57t8E/Nvo35+o4ufW3Qo5RwKrEOguzfgBwmPYV+jSCWxXT8AviRu3E+SqD4YAwhB4blM986Ew3sztyMubqYTvmfuwiY/w11J/Na1Frmu2x63SobObSTqvQ/tzmfb0p1/OdRD/vhiBZzeTSj8SlEvpHkK1JrA2lHRR0DXM6dbf2sqSnDYm1f2s5jnuE5OezHlVEfD05MgTE0v2S6pq4eZw9omSjgga0D8K5hpIYAW9CFK6dWQ7tjilTnQNk8DfJXncbeQvAMNcmXqj9hclTyS8W0Uh5ExKRJ9etegyPUXS5ztcu69KemyH9pdkunSlTlAME7tlflGr8Z04/f3EkY13Yo0JrCEnSiJXhK7U0aCN8a54jk5BwL/Nn02hKIOOcyVtkUHvEFTeseBvzyQ8S/1mk8CaZHUqOif6hV4RSlxtCXh/s/c5IxBIRaC2huX++rVXquAX0ONeMb/OoDeXyhMk7ZxL+Yh6vxF4HLxfHhicMuJCznCYqx2jNiB2D6xS0xJrS2D9QZKnSQ5R/CEmasWlG0DvMsRFGWjM7nPmwTMRxVvE3xnRsUp8em9gPx8t6egC/pHAKgC5KxPOgvrh2WNUEQikJOCGyZelVIiuwROIPl1l0QXaRtLPEq/acQESQuOEtL2kn4xzQoZj3dPlARn0ohICSyKwR1M1elQhRDUlsK5vtxRHrkLKuWzeDu9t8RFlh2aC2SkRHcOnLASG+jeYBSZKRyZwoqSdRj568gNJYE3OLvyZ0acVhAeIg7MSOFCSJ+0gEEhFYG1JF0taOpXCzHo8Jt0joFPJvpU1+/6RpPulCn4KPTykTwGPU6ciUGqrRE0JrI8293EPLhiqfC5wY+o7NMM2/jjUhRlY3O59fMPAYibcGAROlXT/Aq6QwCoAuQsT0ScVdMEEm2kJuBeWm5UiEEhF4HWSDkqlrICe90t6UQI7Nd6vvTXhygSxT6uCBNa0BDl/UgIksBYmR8+3ef0Ac2wvn/QaXfC8UtdrCl/RMR2B2toRTBctZ0cicIakexdwiARWAchdmHiNpIO7MIzNwRA4vilHf/BgoiXQUgQ8Uc4NkmsQDzW4TQJHD5H0ygR6SqnIsX1yEt+XkeTqFAQCXRBwtWiJgSa1VGB5Oqv7lg1Zzpd0+4AA3JfLw0eQYRDwb/TpwwiVKIMRcHsZt5nJLSSwchPuQL8fqtyHYPkObGNyWAQ86vxjwwqZaDMTeKAk76GvRfzF3dN+JhV/FXcl4yqTKih83qXNVscNCr24zxXatpK8lROBQBcE1pHkRsm5pZYElp85b84NI7h+j5FfLqCPJYcOBAx/cC7x2zi4JQ8TsKvilyrgDQmsApBLm4g8lak0C+zlJeB+Cu6rgEAgJQE3mo3QX2mUmPzCssIoB85yzA+ahN2OU5xf+tRdJR1b2ugs9jwFsUSz0CDh4kYwAq5AdiVybqkhgfXa5j74ttwgKtAfdUszg3cquHgSuuhnCj9bIBDogkCJ7coksLpY2Yw27y7p7Iz6UQ2BRQnw4Mo1kZqAvxb/NrXSjPomLZneUJLHSdciP5Z030DO/kbSFoH8wZVhEXiEpG8XCLmGBJZ7nrj3ydAlYgLrFkmuFrx66IszoPgPS9Sfc0DICDUhARJYCWEORZVf+vzyh0CgFAFvV11V0q2lDGJnEATe3kzReVVFkW4l6awx/PVWb2/HW3OMc7o81L1+VpLkirMoQgIrykoM0w8SWPPW/Q+SNh3mJbBY1BETWNdKWoNntEFdob+g59mg1jtasLeT9OfMTlGBlRlwSfV+geILWEni2JpPwI23NwcHBBIScILHY6Aj9hOZLcxxesDcY8yEV0K0E6l6t6RXTHRmvpNIYOVji+a5CZDAmsfI23hr6ls498pOdsTWkn462alZz3LllRNYyHAIeMDMysMJl0iDEfAk1iMy+0QCKzPgUupXbMuDadxeijh2FiXgsb3ngAUCCQns3fRY+0xCfblVjdofqsbpeaUmro2zRr7f3HmcEzgWAgkJPFrS0Qn1zaYq+hbC9SVdUoBDdBP7S3pzQCdJYAVclMwuRawEzBwy6gMRKPHBkwRWoAWfxpVDJb14GgWcC4EpCVzUTCR0Tx8EAqkI1Jbo8TY7N3T3C+eSxPdq37NrkZc324TfE9DZc6n8DLgqw3Hpcc02na8WCDd6AqtEv5MCmKc2caSkx0+tJb0CEljpmUbXSAIr+gr12z8P+vEH3ZxCAisn3UK63cTWWykQCHRNYDdJx3TtBPZ7RWAbSadXFNH752ieWttW72uaZNvqQfnT8zHowgzErT0lfblArJETWM9uPlx9rACDGky4ob+fgaIJCaxoK5LfHxJY+RljYXYCF0q6bWZAJLAyAy6h/htN76tHlTCEDQjMQcAN3d1r4WZIQSAhASewnMiqRR4o6eRZnI36kjMb2+0CJxB/L+mOtVwU+Nk7As+V9JECUUVOYG0g6eICDGowcZyknQM6+oPm9+hBAf3CpXwESGDlY4vmuQlcIWntuQ+b6ggSWFPh6/5kN888oXs38AAC/yFwiKRXwwMCCQm4x99V7fa8hGqzqfI9eaYXmQc0DY9PymY1veLvNE2JH55ebTKNnnKzcTJtKILAeAQOlHTAeKdMdHTUBJb9WkeSqzSReR8tdggI4vBmItg+Af3CpXwESGDlY4vmuQmQwJqb0aCPcN8B9wC506ApEHxEAhtJ+mtEx/CpWgK1VZo6WfXDRWj/TNK9K1kB9/NydcWlgf0lgRV4cQbg2tATWNdKWq1J4vGyPO9ij5rAOqwZ8vSSAfw9EuJ/CfA3ydXQJQESWF3Sr8D2uyS5uS4CgWgEvtQkV58YzSn8qZ6Av/SvWkkUF0jaZAFf31vZS8Txkh4cnDUJrOAL1HP3PHXuoAIxRq3AcgKrlvtxgWUKm8D6pKRnlgCAjTAESGCFWYpBOkICa5DLPnrQ7jO07OiHcyQEihKgN0ZR3IMw5qToERVFuuAWvJru166edBVldDlP0mbRncS/3hJ4kqQvFoguagLrm/RfXWj1nfSP2GvqlKBbGwv86QzWBAmswS59iMBJYIVYhphOfEbS3jFdwysI/JvAHyRtCgsIJCbg8by7JNaZS90/2gqFz0t6XC4jGfS6Yb63O0YXb6HfPLqT+NdbAntIOqpAdFETWO4/95cC8ddiwh8sHhbQ2SslrRXQL1zKR4AEVj62aJ6bwJmS7jX3YVMdQRP3qfB1c/Iykm6g+qob+Fgdi4CbubupOwKBVAQ8Fe8nqZQV0PM9SZ5KuHwBWylMmO32KRQV0HFOUwFz5wJ2MAGBmQg8RpJ78+WWqAmspSW5Vx4yj8CXJTmpGU2ubqdDR/MLf/IRIIGVjy2a5ybw0WY67XPmPmyqI0hgTYWv/Mlu3O7R4XcobxqLEBibgBOtHqXq/yIQSEXA23b2TKUMPQsR2LGiSYm/kbQF6weBjgg8QtK3C9iOmsDy8yjyXwKvaT5UHBwQCAmsgIuS2aVbJS2V2QbqITAbAffcc++9nEICKyfdDLo9waqGrR0ZQkdlpQTeKun1lfqO2zEJuL8aUy7Tr82nJD0jvdpsGklgZUOL4hEIkMAaAdKADnEy3fekaEICK9qK5Pfnwkr6WOYngYUuCNxJ0u8yGyaBlRlwSvUrSLoxpUJ0QaAQgRI3s0KhYCYIAVdglWigHCTc7G74i623Ofq/tQgJrFpWqp9+ksDq57pOE1XErVt/l7Rm8yHRlXzIMAh8V9JDhxEqUQYkUKI6lwRWwIWfzSXfjHxTQiBQGwE3enXDVwQCqQi4PN5N0t0TEJmewFMlfXZ6NUU1/ErSXYtaxBgE/kvAwyS+XwAIWwgLQE5kImICy33K1pXkyWDIMAjs1Uzo9fAYBAJdECCB1QX1oDb943NJUN9wCwKjEHhC87J55CgHcgwERiTAluoRQY1w2HIVfqF/bvNi9qERYuMQCOQg4C/AJfo7ksDKsXp5dEZMYDlSv0NclidktAYksG0zEfO0gH7hUv8J+B5Yov8aFViVXEufa/aTPrkSX3ETAjMRcM+ijUADgYQE/CN5i6QSX3sSuh1O1U6STgzn1dwOsa1+bkYckY+A7z8lEhYksPKtYWrNNwWdOHsPSWenDhZ9YQmQwAq7NL137M+SblcgShJYBSBPa8IvFydMq4TzIRCAwKskvSOAH7jQHwKuHHIVhEe6I+MTuFLSWuOfFuaMEgmEMMHiSCgCpRLnJLBCLfsSnfm1pLsEdPc8SZsH9AuX8hDYUtIv8qhGKwSWSMCVf/cpwIgEVgHI05o4WdIO0yrhfAgEIOCvk6u1vYsCuIMLPSHwpWb6k7eoIuMRcPWam/teO95poY4mgRVqOQbjjF8O71koWhJYhUAnMBN5t0SpisEEGFExJQE/Z3v6JEd+C8gAACAASURBVAKB0gROlXT/AkZJYBWAPI2JvSV9ZhoFnAuBYAQ8iOBhwXzCnfoJXF55JVEXK/CFHmxN/7mke3UBD5uDJuAKh18WIkACqxDoBGYiJ7CYBp1ggStSwcediharR65+XNK+BeIhgVUA8qQmXJ7uxu3rTKqA8yAQlIB7YbknFgKBVAQ+0DSpfX4qZQPQc52kVXoQ5zckPaoHcRBCXQQ2k/T7Qi6TwCoEOoGZQyW9OIGeHCpq7XWYg8UQdP5d0spDCJQYQxHwxHlPns8tJLByE55Cv/te+QcHgUDfCPymmUh4174FRTydE3DC39OWkLkJfFDSC+Y+LPwRX5P0mMBeluqTFBgBrk1JgATWlAALnr6+pIsK2hvHVO39DseJlWPnVcF8NCgIJ//9EQCBwKQESGBNSq7Aef+Q5AbFCAT6SOCOks7vY2DE1BmBBzX9Ao/vzHo9hn8s6b71uLtETz3t5k+BY3FyzVViCAQmJUACa1Jy3ZwXeeuWK3Ku7wYLVgsTWFXSNYVtjmNuGUm3jnMCx0JgAQIksIJeDqdL2iaob7gFgRQE/MPlRpPeyoRAIBWBT0jaJ5Wynuq5d7Pt7owexRb5hfFMenT16ErrJhQSWN1wn9SqkwZOHkSUZ0j6VETH8Ck5AScrr5K0bHLNaRS6jYjbiSAQmIQACaxJqGU+Z8PmBezPkjwxBIFAnwm8VdLr+xwgsRUn4K2pvyputR6D3nK3ez3ujuSpk3FbjXRkNwftIun73ZjGag8IkMCqaxEPaaqcXhnU5bOC3yuDYqvSreh9lP3hye+7F1dJF6e7JkACq+sVWMT+8pLceC9qxjwYLtzpAYFNJF3QgzgIIQ6B9zYjpF8Sx51QnvSt+spwI78w2r9v0mg+1N9Abc6QwKprxV7XPMMfFNhlbx/3NnKk/wRcAXzPwGH+UNIDAvuHa3EJkMAKtjZ7SvpiMJ9wBwI5CXykmbb53JwG0D04AreR9LfBRT13wC9rtu06udc3ebYk30ciy5aSfhnZQXwLS4AEVtilmdGxezSDJVzpFFU+30zQfEpU5/ArKYE1JLl5f2TZTpLb5iAQGIcACaxxaGU+NuxiZI4b9RDYVdKxYIBAQgKbSzo3ob7aVbnnnJum9lG8VeKfwQM7WdIDg/uIezEJkMCKuS5L8sr328htQNaqILERYdWX7kGj8egDwbzraPUecI5wvQ7Jh7A5kyGOnn6RpMOGdPURKwRaApdKWg8aEEhIwL8hVwduppsw1JFUuSrg7JGOrPOgUyuYrHikpCfUiRevOyRAAqtD+BOa/mTTGsEN06PK1yU9Nqpzgfy6U9tTc/2KE37+eLJDIKYzufJCSR8I7iPuxSJAAivIelAtEGQhcKMzAm7m7qbuCARSEXBSlAah82i6r+ItqcAG1PPMZqLRxwP6taBLN0laMbiPuBePAAmseGsyl0dPlHTEXAd1+O9uoO2t9kyBnn0RfK92dZCrsCy/aCfKRq/2XTSidzctFdw+ILLcLGmDipOEkdn21TcSWEFW9jhJOwfxBTcg0AUBqrC6oN5/mz9vHzr7H+nMEfpFZc22Gq3PDPzw67Hc0eWKpl+Xv+b3OZkYfQ1q848EVm0rNq+iPPrHE087v119aIt57L6K7q+4oFzf7pRxo/6axM8B0cUtH7aI7iT+hSFAAivAUuwh6csB/MAFCHRN4HBJ+3TtBPZ7RcCVR37oHOpk159J2qZXKzp7MOc0Q1DuXEGs3irhLRMIBEYhQAJrFErxjrlW0irx3FrIo4Ml1ZaMKYHUW+689W42cXLSlU3vLOFMAhvuMbtLAj25VRwq6aW5jaC/FwRIYAVYxl83Cay7BPADFyDQNQFXJfiBz1ttEAikIvAWSd6iOjTxJMbVBhS0x3GfVEm8+zX3undV4itudkuABFa3/Ce17qENJ056cqHzXJmzUVNpdFEhezWY8ZbB30vaZARn/YHoWe32whEO7+yQ11bUomOv4NtvO1tEDC9EgARWxxfEKyrK4HeMCvMDIeBtQBtLqqHkeSBL0osw/yJpw15EMnoQ/jr8ytEPr/7IsA80s5DdsaKEWxcXh18g/9SF4WA2SWAFW5AR3bm9pPNHPLbrw/yhwx88EMkN7h89Jgh/jHhP8G3sUe8ji6L2s//9JP14zDUY0uHuz3bjkAKeIdawz3tDmELoGN1AcaWBX4SED4FFCfiLYA39bFi5egi4ialL/ociQ6u+mr+ubrS7ZUWL7N5d0XvldIFzZUl/aCshHt5sK7mmCyeC2Iz64jmE5/RpL4F/NJUvy02rpMD5X5Xkdia1NShPjeYdzXuZq2MnFRclvK+p+PbfbDQ5oHHoTdGcWoI/fZ+cPOlSzE/cXCLpbgNufE8Ca9IrKMF5F7aluwlUoQICvSJwq6RlehURwUQg8FtJHos9BHmRpPcPIdBFYlxHkgdC1CKevrRG26etFp9z++kXfm9p8vABi18Gj27G2T8+t+Gg+klgBV2YEdxaW9JlIxwX4ZChb2u+g6TfSVpqysVwz00P6vAEw0hyX0mnRnJoDl/cUmR7Sd6micwj4N/GqxcofDEj9w2bJulaK1sSWB2tnCtMPAGEL1gdLQBmwxN4lKRvhvcSB2si4K9Vv6zJ4Ql99RaIx054bu2n+Tf1qsp6f/lFx/27zqodfgL/PRXNHGbq3eaqQvdy+VACOzWpIIFV02ot7Ks/xDmBtXolIezfDDw5qBJfU7rp+43XKeWwF1cDP6LpkeX2BVHkPEmbRXFmBD9uaCpx926qql0hOHRxC4zTJblqe1FxNdbbm9/N9w4IEgmsjha7tptIR5gwO3ACt5XkSkUEAqkI+OG871OXPIraI6mHKh6K4uEoNYm3GrmPyhCHDcxfJ39t/6EkN1FekpzSfIV+iaQzalrgKXwlgTUFvACnHtdc1zsH8GNUF97Y/A2+edSDe3Ccq7JdnZ1LPGX+SUG2Z3oSoScS1iTe1uqK8g/W5HRiX1197Ir6defQe2bTN/Lpks5ObD+iOhJYHazKrpKO6cAuJiFQG4GPN72w9q3NafwNTWC9nvcc4m9m3uXnKVJ3DH0lzuycH1KdnBlaL5pnSPrkmOvlF0Mno90rq89CAqv+1fVWn7kSs5Gi9N/V2wYwTGenpvr1hALgXWX7miBJGG9xrLH3sj8+ukJwaPLSdtjbOPePw9q/3z731ySBVfgvwcDdjJT+PoXBY65aAm7IPIRtX9UuUIWOv6ott67Q9TldpmpxHiJ/hTx8TloxDzhNkhM658R0L6lX7unxnSkrVJ45QfIraRCZlZHAygy4gPrjJT2ogJ2UJj7W9HFyU/JovZxSxehkSOlKsyubrYrPl+Tke1fiCu3fdGV8Srvu/2T/a+pzOWnIt2kTnk+eVEFb0e3hRTdNoSPqqSSwCq9MbVMgCuPBHAQWIzDkfj5cDnkIuEmrp1y6GqtP8hBJ3q6CzCPgbZSbVwzD206+WLH/S3Ldvcru2bzUn9x8XfbEwWnFWzB9/Xv0uqtd+iQksOpfzVUrnqS5cbA+TtNeDb7fHCnJu2G6kh81v09P7KhFhu+9TmjUMB1ztvXZq13Dvt3r58e7o6QfJLo4PRRrO0k/T6QvihoSWAVXYvmeZkELIsTUQAk8r0k2fHigsRN2HgI1v1DMRMRfyf3FDvkvATeyr735q4e9ePhAn6ogVmx7zvjFOIes1bPR4iSwclwl5XV+pelNs3t5s0ksehvT+3qwtdm/kW7W7vexCPJOSW/o4N3QSSwnNmoeJOZhLa4495bIvoh/G51cfXiGgHzdu4H/tRl0d6GSBFZB6u7v4G0BCAQgMB6BKyR5HDUCgZQEXP2xQ0qFHery34f/TpCFCRzRfumumYv7YXnLxEzTh2qLyw2i3QvGD+q5xC9mblSc4yUgl89L0ksCqwvq6W26HYIn09UqHqjjKaH/qjQAD/bw9rNoSRsnYNzWoHSTcvcOvEOlaznfbd8bv9+Te/0X2unRK2ReE7dk8b2odiGBVWgFt2nHXxYyhxkI9I7AR5vm28/pXVQE1CUBJwS8lbB28YO5q3SQxQncXtL5PQHjxMy3JT26wnj8cubqk7mmKKUMzf1Gv9H2Q0upt7QuElilieez9wlJ++RTn12zr8WTJD1Ckrft1iBu3eIpdmsGd9aT4x4q6ZJCfm7Yo62h3hLp3pHeFlpTvycnUz/bbO97ZOEKev82vqPZRvrWQtdaDjMksHJQnUGnG+Y5849AAAKTEWCL1GTcOGvJBDy1z02gaxVX56zWsy1mqdfCW19emFpph/q85q4sc1x+aI8q3qb7LknuV5Kz4mqu+C9q1/9rcx0Y9N9JYAVdmAnc8oeGvgylccWIpxVeMAGHEqe4QftT221mJeylsuH7lLdsevt4bjmquR4fl9tIYf3uG3lI86HnzMJ2xzHnSkYnVp8iadlxTkx8rKc1v0XSpxPrLaGOBFYByvs2pf+uHkEgAIHpCPhl7T7TqeBsCCxEwKOJ/9Z8jfKPYY3iBJx/Y5DZCTjB5+lFfRS/5HxIkis7Lg8Q4CptqwRXaLipeiRxbxF/cT4rklMj+EICawRIFR3yKUlPq8jfuVw9uq10dJuUrsW7XXaWdGDHiYEUHA5qeo55y7U/WOQUJyDdS6pv8jtJH2m2SX4myG+jhwe5EnCPZtvj/YLB9jbMZzfVyn8K5teS3CGBlXmxlmkbBq6e2Q7qITAEAu694C8X7sWAQCAVAY8p/lwqZQX1uClnyS1ZBUNLbuouzYOjt1r2Wfzw6Rceb4s9oVCgfii/V5NAc0N22/ZkwejigSD7V9TonQRW9CtqPP+cLIhatTReJAsf7eez97fT0zxBzduUSshOknx/d7VnlObsqeIusfPAVUDextZnMUcPg/IHn5KTap1Q3aT9vamh75T7UzrB7p6b0YUEVuYV8oSJV2S2gXoIDImAv0a5yaEf6hEIpCLwF0nuCVGT+GueXxiQ0QgMcSv/3u1WCvercW+V60ZDNeNR3gbohKkfHP0S/l5Jd5pCX9enbt9uwYzelJoEVtdXSnr7Q+iL6559b5LkLXG3NBUe3so7zTRVb7Vap90y76pa6+37cJ+fS9o6/eW3mEZ/wPOHvKGIP/69suk9Zb6pfxvdW9WV8TVXtflacMVy5PcsElgZ/1r9YPfbjPpRDYGhEnCJeKkKg6EyHlrcD26n2dQS9w0Vb3vsirG3i/rBdY2uHAhk1w/t32uHy3hL3YKNg/2SuKmkbZsEz8MGwMtfyCNXxJDACvSHk9AVN5vuW8XQqHh8H3YC6tR2MqPvP97mbR7uneeKqnu30+WcaPa9e2jixLq3ZHtKYQlxknGInBdle6Ok4ySd0kwwPretRnIy1uJBAL423crEDfd9rfZVzGGtZkKmnzUjCgmsjKviyUeegIRAAAJpCdw84Ae/tCTRtiABjzivoczbPu9SWcItypW2EVuQoyxFKD+8tcTPa7n7zUwSNAmsSajFP8eV5K6IJGkQf6268PCwJqn3koKGd5B0ckF7mIpPwL+HbvTu1gBOaEUSEliZVsMVIs7gIhCAQB4Cr698BGweKmidhoB7FV7RNIB1X5/I4obdz4rsYHDfPHXH9w8EAgsS8IcRN6J2r5RIQgIr0mqk9eUJzYTyL6VVibYeEPhZW+Uzv/KnVEhD6IdVimXf7Hi645MCBUUCK9Ni/KGZfHCHTLpRCwEIzCPgkdR9b8zMWpcl8CpJby9rcmxr61XSZHPswAqecGLTbPiBBe1hqh4CVza9dT7QjjmP4DUJrAirkM+H0yW5JxYCgfkE7irJPRtLi6sBvaXcz9YIBBYl4AExnvD50QBoSGBlWIT9mt4k78igF5UQgMDCBL7T9kiACwRSEri83fufUmcqXe+R9PJUygas53/aBq5bDZgBoS+ZgD+ORHiRI4HV/yvVE0Q9YRmBwKOa/l/f7BiDe5Ix4bjjRQhs/pimf+ZuHftHAivxArihW6nRsYldRx0EqiTgRp9nVOk5Tkcl8PTmZeLwgM55gpOnLrkBNzI9AX/lPlOSp1shEFiQgJNGbmYf4XmOBFb/r83dm2TpUZKcWEeGS+AHTR+qBwUI35VYFw9gymMA1NW54ArlzdqhC106TwIrMf0vN1ua9kisE3UQgMDsBPwCei8AQSAxAU+53CmxzmnV3ZnJttMiXOz8BzTrfFJyrSismYB7YXn6l/8bQUhgRViF/D7QDys/48gW3Cx780CDJO7bbLN3Qm25yNDwrSgB92RzH6wji1qd2RgJrMSL4I79fEFJDBV1EJiDwLslvQJKEEhIYOXmmnLFUxTxdCB6NuVZDX9NPC+ParRWSMBDeJzAjiIksKKsRH4/3H/RfRiRYRG4um1bEG0K6rMlfWRYS0G0SyCwT6DdCSSwEl6qP5W0dUJ9qIIABEYjcEPTd843MwQCKQn4wc0PcBFk42by4F8iONJTH+4u6eyexkZYoxPwhxB/EIkkJLAirUZeX5aX5H5YHtSBDIfA7dt1jxjxC5rk2vsjOoZPRQk8Q9KnilpcsjESWIkWw1tNIn2xSxQWaiBQDYFvNU2ZH1mNtzhaAwH3wLk0gKMu1/b2EiQvgUdL+npeE2gPTODgZtvg6wL6RwIr4KJkdMlbtjxI5DYZbaA6DgFPoPxZHHdm9OQlkt4b3Efcy0dgX0kfz6d+Is0ksCbCtvBJK0q6QtJKCXShAgIQmJzARpI85hWBQCoCL5T0vlTKJtBzi6TVJV03wbmcMj6BJzZ9SI4Y/zTOqJzAQZL2DxoDCaygC5PZrQsk3TazDdR3SyDaduUl0XhtM/DE90na5HR7zZS2HrEq2QxIYCW4EjzS/F0J9KACAhCYjsD5ku44nQrOhsBCBDyN56oOv4a/iPL94lfk49qJYMUNY7ATAi8LXl1AAquTyyKEUffmc48+pH8EHirpe5WF9aY20e/nIqTfBNyP7Y1t0jJipCSwplyVdSVdMqUOTocABNIR8Dago9OpQxMEtJWkMzrg4GpCVxUi5QnsKumY8maxWJDAPyR5nU8saHMSUySwJqHWn3P+2PSe2aQ/4RBJk7jyhL8fV0rCRRsH0ne20tUbze0bJb1G0mGjHd7JUSSwpsT+OUlPnlIHp0MAAukI/EvSCoFGoKeLDE1dEnBPkrUKO7CLpO8Xtom5/xK4p6TTGCPey0vi5rbtg8eCRxcSWNFXKL9/rgL2VnKkbgK+36zf9jirORL/Np5CEqvmJZzVd7er8LNn9AQrCawpLr+HN1MH3TgagQAEYhGIviUkFi28GYWAk1eXFez/4IeIVUZxjGOyElhD0p95UM/KuLRyJ6+cDPD02hqEBFYNq5TXx2UlXUOv3byQC2hfVdK1BeyUMOG+z9eXMISNogRquUZJYE1xWfyefjtT0ONUCOQjUNPX9XwU0JyawLHtl6nUemfS5+a9F5YwhI05CSzTTom6x5xHckB0Ap7o+TxJV0Z3dAH/SGBVtFgZXXVl+WclPT6jDVTnIeDk49aS/pBHfWdaPSnTW+29JRKpm8CvJN2noqQkCawJr7fnSPrwhOdyGgQgkJ/A5yU9Jb8ZLAyMwF8kbZg5Zo+rdhUhEovAq5vtyW+L5RLejEHgLZLeMMbxUQ4lgRVlJbr3wxPg9mRSavcLMYYH3qnjpLmfHfoo/sDj6b1OriJ1EnhqMyzC70xu3F6LkMCacKUuavcxT3g6p0EAAgUIbN806f1JATuYGA6B50v6QMZwXRlSutdWxnB6p/r+kr7RNDf11kKkDgLuO+Nx9SfV4e5iXpLAqnThMrrtJNYHuQ9lJJxG9eFNJfUzJbk3a99lj2Za87sZPFPVMl8gab9Kpy6TwJrgUnOWmcqOCcBxCgQKE3BJ7N0L28Rc/wnkHG3u6T4H9B9h1RF624S/Vj6i6iiG4fyX2uqAmqMlgVXz6uXzfc12+9Y2+UygeUICTpq7quULE55f82nHS3pQzQEMxHdP331wU5VcwyCTmZaEBNaYF6ofXP825jkcDgEIdEdgO0mnd2ceyz0ksGv74pA6tHMlbZFaKfqyEXisJE8idjNbJBYBVzK+sydbPklgxbq2onnjUfcviubUgP35paQtBxy/Q9+9qcT6OJMzQ14FHiKwl6Rvh/RudKdIYI3O6t9H/rbJqN9pzHM4HAIQ6I6Am2euI8kvAQgEUhHwNkJvJ0wpG/e4T0ZKTtF0nSzJWwvdnwbpnkDfXiBJYHV/TUX3wM84v2u2cPkjO9INgVskfULSc7sxH9KqPyR44iu/jd0vj7ex/r1dj5p6Xc1GjgTWGNeUG9V5uhl/iGNA41AIBCDwaUlPD+AHLvSHwGqSrk4YzocyJMQSuoeqOQjcrrnH/AlKnRO4t6Qze9ZzhgRW55dVFQ4sLcm/I/tW4W2/nHRiwJOD/cEU+S8Bvy87uXo+lcqdXhY3Stqkeca8rFMv0hongTUiz2XbzOXyIx7PYRCAQCwCmzW9634fyyW8qZzAayQdnCgGP/xemEgXaroh4AeqJzQvMp/sxvygre4i6QeSXAXRNyGB1bcVzRvPXdrtWx5ig+Qn4Al8X6XKf4mgl5L0jPa6zL8iWFiQgCdgujKwb7tQSGCNeJ27aTsjQkeExWEQCEjgmKYX1m4B/cKlegmsmuiL61ubh4vX14sBzxch4AcrT546FDLZCRwi6R2SrshuqTsDJLC6Y1+z5ce3TcT9AR5JT8AfsN4r6R/pVfdW4/pN5fpLJL26txHGCezNbUXmxXFcSuoJCawRcG7QlOT+dYTjOAQCEIhN4IHNdBT3q0EgkIrAfSWdOoUyv5yu3G5Pn0INpwYk4ATn2yU9J6BvtbvkL8pvGci2TRJYtV+t3fnv1icHSXpxM9Bghe7c6JVlTzZ9raQ/9iqqssGs0TJ8mSRvfUXSEHAF8rsbpk5eXZdGZVgtJLBGWBp/HffNCoEABOom4ET0RnWHgPfBCLjHw+WSPNJ8ErmfpB9NciLnVEPAD1qfl/TwJuniF0pkMgKudHAlrfsZDmkaNAmsya4XzlqYgKuFvN1tXcBMROA4SS+X5CERSDoC7lH7GAYQTAXUyaqjJe0tqQ8N2keBQQJrDkqbtpM9RoHJMRCAQHwCb2y/TsT3FA9rIeCkhJtkjpucuEjShrUEiZ9JCLjJ8qMkubIbGY3AJc2UR788+uF8iEICa4irni/mV7QVWe67iCyZgP/2zpPkSutrgZWVgItFfI/nI/PomP1R/ghJrxz9lN4cSQJrjqU8vtly9KDeLDeBQAACJuCS5aF8pWDFyxD4bdNv5E5jmlpP0qVjnsPh/SDgLRR/brYYrijJDW6RhQl45Le3Q2zXThUcMh8SWENe/Xyxux/RBe2HF6arL8zZ954Ptv2a8q0Ammci4N9GJ2Y8NI3rcnFC/m28vq2kvGHAlxAJrCUs/gskvX/AFwehQ6CvBDwlzE2WEQikIuAkhF80R01GeOIgX8BT0a9Xj7fz3EfS1+sNIbnn3iLoiit6j85DSwIr+SWGwgUIbNw+Dx0AFf1J0q5tYu8meHRKwNXpj5D04U69iGXceQk/K7h6f+hCAmsJV4C/jvrGjkAAAv0i4BeClXo6cr1fK1VXNG7Y/aoRXPbXMzduRyAwn4ATn96mskU72cr3pyHJfpJ+TD+4GZecBNaQ/hK6i9Vb4O8v6ZFtr6fuPClr2cmAfSSd3Qzc6OvEtrJE01vbWtJdJLlf1pDE1Va+Ns9pemj+lJ0jCy09CaxZ/hJo3D6kWwSxDpGAH1buMcTAiTkrgTMkbTWHBY+QPiSrFyivncCWkjw19fGSHlB7MDP4f6akTzXVDj+RdHoP40sZ0p2DbqXxSxXSTwJOqO/eVgm/RtLaPQvzc23C/Cts469uZf3cvoOkPXr62+hE1Wfbjzk/r251yjnse9Tm5cyNbqnrfa9XN19BVxvdXY6EAAQqJLCjpJMq9BuX4xLYU9IXl+DeuW2VTdwI8CwaAT8P+WXSCS1XaD04moMj+PPDZtLUWW3C6gsjHM8hEIBAHAJrSXqhJPfN8sS4deK4Nqcn7mflfsZuxv5VSSfOeQYH1ETgsc1z/E7Nc5cT/e5Z7R63tYh78fq30ZMtXYHshuyuukIqJtBlAssX0t0qZofrEIDAaATc48CJao9nRyCQioArSraZRdlzmgl0H01lCD2DJeBGt66McKXWbSTdNcgYco/z/k3T/NgfAd3n7WWS/P9DIACBfhFwdai3Ny3bVkJEaLniZzpX1/v+4wrBg5rE2xX9wk40cxBYvWkPsn/7m7iKpLtL8n+7Fjdcd37hGkm/a5rUH0wvq66XJI/9rhJY/rpAc7Q8a4pWCEQksHNThnxCRMfwqVoC7tfgMvBFxY2pH1JtVDheAwH3VnMTdFdLLNc67GlO7hfhvlp+2ZxUbm16vPkh3D3cbmyV+L+fb3q6vVPSzZMq5jwIQKA3BNxD60WSNm0j8j3H9yVPXPW9aFJxtcr8+8+C09e8HdATAy+ZVDHnDYKAr73nSXqapFXbiFdofxt9bU772+jfRV+XC/42+tr8UJu0GgRkguxudKZLTWsqP+RagQAEpiewHn0QpoeIhoUI7DtDpZUnzl0GJwgUJuAPgu4X4f9O+3HQL5H+H9scCi8i5iBQKQHuP5Uu3ADcTnVt+vfQ/+O3cQAXzVwhTvuQNZf+mf59W0mnTXIi50AAAlUT8Fha76NHIJCKgLd1/W0BZa9otni9O5Vy9EAAAhCAAAQgAAEIQAACcQiUTmC5vP6qBUru45DAEwhAoAQBthKWoDwsG3u126scNVV+w1p7ooUABCAAAQhAAAIQGBCB0gmsAxq2bxoQX0KFAAQWJuDJNJ5kgkAgFQH3VPh701fx2ZI+k0opeiAAAQhAAAIQgAAEIACBWARKJrA8etPTKhAIQGDYBJ4q6bPDRkD0iQl4Wpynzrg3AgIBCEAAAhCAAAQgAAEI9JBAyQTWpyX5xRWBAASGTcDbskDzvwAAB7RJREFUiNccNgKihwAEIAABCEAAAhCAAAQgAIFxCJRKYG0l6YxxHONYCECg1wS+Jmn3XkdIcBCAAAQgAAEIQAACEIAABCCQjECpBNavJN01mdcoggAEaidwq6Rlag8C/yEAAQhAAAIQgAAEIAABCECgDIESCaw3S9q/TDhYgQAEKiJwmqT7VOQvrkIAAhCAAAQgAAEIQAACEIBARwRKJLDc72b1juLDLAQgEJeAG27/P0k3xXURzyAAAQhAAAIQgAAEIAABCEAgAoHcCazDJT09QqD4AAEIhCRwi6SVJP1fSO9wCgIQgAAEIAABCEAAAhCAAARCEMiZwFpL0iWSlg4RKU5AAAJRCewt6XNRncMvCEAAAhCAAAQgAAEIQAACEOieQK4E1lKSLpe0Rvch4gEEIFABgdUk/a0CP3ERAhCAAAQgAAEIQAACEIAABDogkCuBtYukYzuIB5MQgECdBJ4j6aN1uo7XEIAABCAAAQhAAAIQgAAEIJCbQK4E1nVtc+bc/qMfAhDoD4EtJJ3bn3CIBAIQgAAEIAABCEAAAhCAAARSEciRwHqmpI+nchA9EIDAYAicJGnHwURLoBCAAAQgAAEIQAACEIAABCAwMoHUCSz3sXHvq2VG9oADIQABCPyXwF6SjgAIBCAAAQhAAAIQgAAEIAABCEBgQQKpE1h+8XwiiCEAAQhMSOAsSVtNeC6nQQACEIAABCAAAQhAAAIQgEBPCaRMYG0p6Rc95URYEIBAOQIHSjqgnDksQQACEIAABCAAAQhAAAIQgEB0AikTWD+UdP/oAeMfBCAQnsANDIEIv0Y4CAEIQAACEIAABCAAAQhAoCiBVAksJ66cwEIgAAEIpCDwR0l3SKEIHRCAAAQgAAEIQAACEIAABCBQP4EUCSzrcOP2NevHQQQQgEAQAv9s7ynXBPEHNyAAAQhAAAIQgAAEIAABCECgQwIpEliHS3p6hzFgGgIQ6CeBCyXdtp+hERUEIAABCEAAAhCAAAQgAAEIjENg2gTW+pIuGscgx0IAAhAYg8D2kn4yxvEcCgEIQAACEIAABCAAAQhAAAI9JDBtAusrknbvIRdCggAEYhC4RdLqkq6L4Q5eQAACEIAABCAAAQhAAAIQgEAXBKZJYN1P0ildOI1NCEBgUATeKOnNg4qYYCEAAQhAAAIQgAAEIAABCEBgIQKTJrCWknSVpFXhCQEIQKAAgdUk/a2AHUxAAAIQgAAEIAABCEAAAhCAQEACkyawXinpkIDx4BIEINBPAodKemk/QyMqCEAAAhCAAAQgAAEIQAACEJiLwKQJLFdC3GYu5fw7BCAAgYQEtpN0ekJ9qIIABCAAAQhAAAIQgAAEIACBSghMksByJcSLK4kPNyEAgf4Q+K2kO/cnHCKBAAQgAAEIQAACEIAABCAAgVEJjJvAWlPS5ZLGPW9UfzgOAhCAwJIIPF/Sh0AEAQhAAAIQgAAEIAABCEAAAsMiMG4i6kxJ9xwWIqKFAAQCEbhE0vqB/MEVCEAAAhCAAAQgAAEIQAACEChAYJwE1paSflHAJ0xAAAIQWBKBT0l6BoggAAEIQAACEIAABCAAAQhAYDgERk1gLdVuHVxjOGiIFAIQCErgX5JuK+kvQf3DLQhAAAIQgAAEIAABCEAAAhBITGDUBNbjJB2V2DbqIAABCExK4LKmF9a6k57MeRCAAAQgAAEIQAACEIAABCBQF4FRElgbSPprXWHhLQQgMAAC95d06gDiJEQIQAACEIAABCAAAQhAAAKDJzBKAutLkp4weFIAgAAEohG4WJIT7AgEIAABCEAAAhCAAAQgAAEI9JzAXAmse0v6Wc8ZEB4EIFAvgRdI+mC97uM5BCAAAQhAAAIQgAAEIAABCIxCYK4E1nGSdh5FEcdAAAIQ6IDArZLWlnR1B7YxCQEIQAACEIAABCAAAQhAAAKFCCwpgbWPpE8U8gMzEIAABCYl8FlJT530ZM6DAAQgAAEIQAACEIAABCAAgfgEZktgLSXpWkn/L34IeAgBCEBAK0m6EQ4QgAAEIAABCEAAAhCAAAQg0E8CsyWwPinpGf0MmaggAIEeEjhR0k49jIuQIAABCEAAAhCAAAQgAAEIQEDSbAms66i+4vqAAAQqI7CbpGMq8xl3IQABCEAAAhCAAAQgAAEIQGAEAjMlsH4gaccRzuUQCEAAApEIXNM2dL8lklP4AgEIQAACEIAABCAAAQhAAALTE1g0gbWupIuXUJk1vUU0QAACEMhHYD9J78qnHs0QgAAEIAABCEAAAhCAAAQg0AWBBRNYy0ry1sHlunAEmxCAAAQSEVhb0hWJdKEGAhCAAAQgAAEIQAACEIAABAIQWDCBtYOkkwP4hAsQgAAEpiHwTUmPmkYB50IAAhCAAAQgAAEIQAACEIBALALzE1grMII+1sLgDQQgMBWBXSUdO5UGToYABCAAAQhAAAIQgAAEIACBMATmJ7BeI+ngMF7hCAQgAIHpCFwkacPpVHA2BCAAAQhAAAIQgAAEIAABCEQh4ATWPSWdGcUh/IAABCCQiMA+kg5PpAs1EIAABCAAAQhAAAIQgAAEINAhASewjpHk7TYIBCAAgT4RcCN3N3RHIAABCEAAAhCAAAQgAAEIQKByAv8fmP76Kqd+sRIAAAAASUVORK5CYII=;" parent="1" vertex="1">
          <mxGeometry x="79" y="100" width="88.89" height="20" as="geometry" />
        </mxCell>
        <mxCell id="pP8O4rAKiQuBhvKMOiU7-2" value="" style="group" parent="1" vertex="1" connectable="0">
          <mxGeometry x="109" y="160" width="801" height="357.5" as="geometry" />
        </mxCell>
        <mxCell id="pP8O4rAKiQuBhvKMOiU7-21" value="" style="rounded=0;whiteSpace=wrap;html=1;fillColor=none;" parent="pP8O4rAKiQuBhvKMOiU7-2" vertex="1">
          <mxGeometry x="-49" y="-82.5" width="850" height="402.5" as="geometry" />
        </mxCell>
        <mxCell id="pP8O4rAKiQuBhvKMOiU7-3" value="" style="whiteSpace=wrap;html=1;rounded=0;fillColor=none;" parent="pP8O4rAKiQuBhvKMOiU7-2" vertex="1">
          <mxGeometry width="310" height="240" as="geometry" />
        </mxCell>
        <mxCell id="pP8O4rAKiQuBhvKMOiU7-4" value="" style="shape=image;verticalLabelPosition=bottom;labelBackgroundColor=default;verticalAlign=top;aspect=fixed;imageAspect=0;image=data:image/png,iVBORw0KGgoAAAANSUhEUgAABigAAAE+CAYAAAAXs5gcAAAACXBIWXMAACxLAAAsSwGlPZapAAAAAXNSR0IArs4c6QAAAARnQU1BAACxjwv8YQUAADdySURBVHgB7d3tmePWlS7sx+fy/9EbwcARSI5goAgsR6DqCCRF0FAEkiLoUgTSRNB0BJYjaDgC+0Sgl/ug6WJVA6wCiwAB8L6va023Pjxi86sWsPbezx+S/B6ONfv6PsCtqPf1LgCv89d9/Rbepvte5VO76DHZrq/29VmW4bMs57EU9/tqcxvK++CHALzOl7md701g74/hqWZff0t3EQnchioAr7Okm2HX9PO+7uJ7tU8dPSbbVAaTTejza27rJlv5WVgFAGCE/xP6/BKNFQDAWG263ST/Dn30mGxNWTHfhD7tvt4EAICTDCj6lZUf72M1JADAWOWoK0cZ9dNjsiVVHOczpAxpv4xhLQDAswwohlXRcAMAnOPHff0U+lSRfcT6HYZtVehTdk60AQDgWQYUp92lO1MVAIBxvo28hSHlWBw9JmtWhpBV6FN2kP0aAABexIDieU26i0gAAMYpeRRt6NNEj8k6leHa16FPGUw0AQDgxQwoXqZsw68CAMAY5fx1odnD9JisjVDsYW2EYgMAjGZA8TICDQEAzlNCs78LffSYrEkV+SlD2gjFBgA4iwHFy1XRkAMAnOM+QrOHVPv6JbBshmmnlSFsGwAARjOgGEegIQDAeYRmD6ujx2TZHEc2TCg2AMArGFCM10QoHADAOYRmD2uix2SZyvBMoHu/+8jkAAB4FQOK8/wYK4gAAMYq57M7p32YHpOluYsb8EPayNcBAHg1A4rzOIMVAOA8bdzUG6LHZEmqff0Q+rQxbAUAuAgDivNVEWgIAHCO+3TntvOpKnpMrq+KYdkpb+K4OgCAizCgeJ06VhUBAJyjidDsIXX0mFxXef9VoU8Zru4CAMBFGFC83rcRaAgAcA6h2cP0mFyLUOxhP0UmBwDARRlQXEYJNPwiAACMITT7ND0mc/smbsAPaeO5AQC4OAOKyyhns/4SZ7QCAIzVpjvPnU8deswqML0qbsAPaWOYCgAwCQOKy6ki0BAA4By/Rmj2kGpf7wLTqiIU+xTH0QEATMSA4rLqCDQEADhHk25Qwafq6DGZVhmCVaFPGZ7+FgAAJmFAcXnffiwAAMYpRz21oY8ek6mUUOw69BGKDQAwMQOKaZQmX6AhAMA4QrNP02NyaUKxh7UxFAQAmJwBxTQEGgIAnKdNd947n9JjcknVvn4Mfdp0w1IAACZmQDGdKkKzAQDOsYvQ7CFV9Ji8XpUuFJt+QrEBAGZiQDGtsgVfoCEAwHjNvn4OffSYvFYJpK9CH6HYAAAzMqCYnkBDAIDzlB6qDX30mJyrDLc+D32EYgMAzMyAYh7lIkCgIQDAOEKzT9NjMlYJxTbY6vePeG4AAGZnQDEfgYYAAOO1EZp9ih6TlyrDLKHY/dp9fRUAAGZnQDGfKt0F5GcBAGCM3b6+C32q6DF5XhXh6qcIxQYAuBIDinmVVUtvAwDAWGXlt9DsfnpMniMUe1gZfgrFBgC4EgOK+Qk0BAA4T+mh3Ejsp8dkiFDsYd/HsVcAAFdlQHEd5SKhDgAAY5Sw7L9GaPYQPSZPlZ01Blf9Sih2EwAArsqA4nrexTZrAICx2gjNPkVoNgfl6K8m9GkjFBsAYBEMKK6nikBDAIBz7CI0e0jpLfWYVBGKfcqXEYoNALAIBhTXVVY1/RAAAMYq58b/FProMW9bGU69j500Q8pwsw0AAItgQHF9d3EuLADAOZoIzR5yFz3mrSq5E1XoIxQbAGBhDCiWQaAhAMB4h9DsNvTRY94eodjDhGIDACyQAcVyCDQEABivjdDsU/SYt6OOG/BD2gjFBgBYJAOK5TicFSvQEABgnHLMk9DsfnrM21Dt613oU3ZaCcUGAFgoA4plqSLQEADgHEKzh1XRY26ZUOzTSu5EGwAAFsmAYnnu0p0dCwDAOOXsfaHZ/e6ix9yqMpyrQh+h2AAAC2dAsUxNBBoCAJxDaPawJs7h35oydPo69NlFJgcAwOIZUCyXQEMAgPHaCM0+peQUVGELyrCpCX3afb0JAACLZ0CxXAINAQDOIzR7mB5zG6rIFRkiFBsAYEUMKJatSrfKDQCAcYRmD6uix1wzodinleFkGwAAVsGAYvnK1m2BhgAA45XQ7F3oo8dcL8d0DSuh2PcBAGA1DCjWoYnwOwCAc5Rz6NvQp4kec23KUEnQeb9fI5MDAGB1DCjWoxxTUAUAgDHadKHZ/w599JjrIRR7WBu5MwAAq2RAsR4CDQEAzlNCs78PffSY61BFbsgQodgAACv2x7Am1b5+SdeAAzyn3JCzYhjm4bO2fIedAt+Ep6roMZesiiHSKY5xW47ys3AX1qrONrkmWh+vF9yg39Xq6m2AS6mzrs//mKoCwFPvs67vcj0mZXi0lvfQ3NUEuIQq6/rsj6k6ACyaI57WqYlAQwCAc5Q8ijb0aaLHXJq3EYo9RCg2AMAGGFCsVzmm4IsAADBGOTZAaPYwPeZy3MUN+CFtuqOdAABYOQOK9Spn0P4SZ9ECAIxVzqP+LvTRYy5Dta8fQp9DKLYhIwDABhhQrFuV7gISAIBx7vf1fehTRY95TVWEYp8iFBsAYEMMKNavjtVVAADnaPa1C33q6DGv5V26IQWfKkPFXwMAwGYYUGzDtx8LAIBxhGYP02POr4Ri16HPfWRyAABsjgHFdpSLGYGGAADjOM/+ND3mfL6JG/BD2siNAQDYJAOK7TgEGlYBAGCMNm5+DtFjzqOK4cSQNoaIAACbZUCxLVW6M2sBABjnPkKzh1TRY06pilDsU8rwsA0AAJtkQLE9dQQaAgCco4kA3iF19JhTKe+5KvQRig0AsHEGFNsk0BAA4DxvYrX2ED3m5ZWMj89Dn5/i2CsAgM0zoNiussJNoCEAwDhCs0/TY16OUOxhbTw3AAA3wYBi2wQaAgCM16bbSUE/PebrlSHPj6FPG0NCAICbYUCxbVW6C0gAAMYp594Lze5XRY/5GlU8f6c4Zg0A4IYYUGxfWZ0l0BAAYLxmXz+HPnrM8wnFHlaGgrsAAHAzDChug0BDAIDzlB6qDX30mOOVoY5Q7H5CsQEAbtCWBxRltVsbDsrFUB0AAMYQmn2aHvPlSii2gU6/NoYTAAA3acsDinZff42LyWPvYjs5AMBYbbq+kn56zOcJxR7WxhAQAOBmbf2Ip98i3PBYlS6Q77MAADDGLvrKIVX0mKdUEYp9Shn+tQEA4CbdQgZFWan0UzgQaAgAcJ4mQrOH6DGHvY8dJkPK0O+3AABws24lJLuc9boLB3dx/i0AwDlKD+WGar+76DGfKkObKvQRig0AwM0MKIo3sXX4mEBDAIDxyjn5cs6G6TEfvI2BzZA2nhsAAHJbA4o2LiafKmfhVgEAYIw2QrNP0WN2Q5om9GnThWIDAMBNDSiKsh3/u3BQggwFGgIAjLeLvnLIrfeY1b7ehSFCsQEA+I9bG1AU9xGafUygIQDAeX6M0Owht9pjlqGMUOxhZagnwwUAgP+4xQFFITT7sbt0Z+QCADCO0Oxhd7m9HrP8eavQpywS+zEAAIQHtzqgKGwtfqyJQEMAgLEOodlt6NPkdnpModjD/hHPDQAAPW55QHG4mBSa/UCgIQDAeO2+3oQht9BjfhWh2EPadM8PAAB84pYHFIXQ7McOZ+YKzQYAGGcXfeWQrfeYVWS6nWKHEQAAg259QFHc7+v7cFDt610AABirnK//U+hTZZs9plDs04RiAwBwkgFFp4nQ7GNlC7bQbACA8Zq4ITtkiz1mGUpVoU9ZBCYUGwCAkwwoHth6/FgTZ8UCAIwlNPu0JtvpMcuw5evQp4RiNwEAgGcYUDwoF5NfRmj2sbINvwoAAGO06YYU9NtCjykUe1gbC50AAHghA4rH2gg3PCY0GwDgPOWYJ31lv7X3mFVktp1SFn21AQCAFzCg+NR9hGYfq/b1SwAAGEto9rAq6+wxLeA5rQzl2gAAwAsZUPRr9vVrOKgjNBsA4BzfRmj2kDrr6zEdgTpMKDYAAKMZUAx7E6t/jjURAggAcA6h2cOarKfHLMMU2Qr9dpHJAQDAGQwohgnN/lRZEVUFAIAx2nRDCn1lvzX0mHdxA35Im25xFwAAjGZAcVobzfYxZ+4CAJynHPMk56zf0nvMal8/hD6HRV1tAADgDAYUzytZFC4mH1QRmg0AcA6h2cOqLLPHrGKBzinlOqkNAACcyYDiZZp9/RwO6lhFBgBwjhKavQt96iyvxyyPpwp9hGIDAPBqBhQvVy4m23BQng+h2QAA45UjRNvQZ0k9plDsYbvI5AAA4AIMKF5OaPanyoqpLwIAwBhthGafsoQe85u4AT+kjZw+AAAuxIBinDbdxSSdchZvOSu4CgAAY5TQ7O9Cn2v3mFUMJ4YIxQYA4KIMKMbbRWj2sWpf7wIAwFj3EZo9pMp1eswqQrFPKUO1NgAAcCEGFOdpIjT7WB2h2QAA5xCaPazO/D1mGYpUoU9ZpHUfAAC4IAOK85WLyd/CwbcfCwCAccoRom3oM2ePWUKx69Dn1zj2CgCACRhQnK+cvyrc8LFyUSc0GwBgnMO5/vrKfnP0mEKxh7WRlwIAwEQMKF6njdDsY0KzAQDO08ZN4CFT95jVvn4MfYRiAwAwKQOK19vFxeSxKt0FJAAA49ynO+efT1WZpses0oVi0+9NDCcAAJiQAcVllBVXQrMflC34QrMBAMZrIjR7yBQ9ZslWqEKfMiz7NQAAMCEDissRmv2Y0GwAgPMIzR52yR6zZFt8HvoIxQYACHMwoLicQ2h2Gw7KCrc6AACMITT7tNJjvjY0Wyj2sDbd0U4AADA5A4rLaqOZf+pdbJsHABirjb7ylNeEZpfhhlDsfoZjAADMyoDi8nYRmn2sSncB+VkAABijHLMjNLtflfN6zCrThG1vhVBsAABmZUAxjbIi66dwUFapvQ0AAGM1EVQ85JweUyj2MKHYAADMzoBiOkKzHxOaDQBwHqvah43pMUt2hVDsfveRyQEAwBUYUExLaPZjQrMBAMaTC3DaS3rMstPCYpl+bRxRCwDAlRhQTKtNN6TgwWsCDQEAblUbfeUpp3rMchRUE/q0MfwCAOCKDCimV455siLpQQkyFJoNADDeLkKzhwz1mFWEYp9SrlPaAADAlRhQzENo9mNlFdsPAQBgrGZfP4c+fT3m+9i9O0QoNgAAV2dAMR+h2Y/dpTsLGACAcUpf2YY+d3noMcuwogp9yuKpJgAAcGUGFPMSmv1YE6HZAABjCc0+rUl3rJNQ7H5tDCcAAFgIA4p5temGFC4mHwjNBgAYr43Q7FO+Cn3aGG4BALAgBhTzK8c8CTd8UIIM30doNgDAWLt0IcfwUm9iRzcAAAtiQHEdQrMfqyI0GwDgHKWvFJrNS5RFUrsAAMCCGFBcTzkTdxcO7iI0GwDgHKWv/C0wTCg2AACLZEBxXUKzH2vivGAAgLFKnoCcM4a0ERgOAMBCGVBcl4vJT72L0GwAgLHaCM3mU226UGwAAFgkA4rrK9vxhRs+EJoNAHCeXfSVPGbHNgAAi2ZAsQz3EZp9rEq3kwIAgHFKaLa+kqKEYssmAQBg0QwolkNo9mMli0JoNgDAeE3cmL51QrEBAFgFA4plsQX7sWZfXwcAgDEOOWdtuEX/iFBsAABWwoBiWcrF5JcRmn2sHFNQBQCAMdp9vQm3pk23ExkAAFbBgGJ52gg3PCY0GwDgPLvoK2+NnTMAAKyKAcUy3acLtaNT7euXAAAwltDs21GGUbJHAABYFQOK5WoiNPtYva8fAgDAWCWPwI3rbStDqB8DAAArY0CxbLZoP1YuroVmAwCMp6/cLqHYAACslgHFsgnN/lRZGfZFAAAYo003pGBb2gjFBgBgxQwolq/d15twUMKyf4nQbACAscoxT0Kzt6UsZmoDAAAr9cewBr+mC81+G4oq3ZDiywCnvAusWxnQtwEuqexGrfb1TVi7MmxqAwAAK2ZAsR7Nvj6PLdwHdbrQbKsAYVgdAPhUySsofWUd1qosXhKKDQDA6jniaV2sJH3s2wgEBAA4h75yvUoodhMAANgAA4p1EZr9qXLsldBsAIBx2nSh2frKdWljRzUAABtiQLE+bbqLSTqH0OwqAACMUUKzvw9rIhQbAIBNMaBYp11cTB6r0g0pAAAYp+QY/BTWQCg2AACbY0CxXs2+fg4H5ZinHwIAwFgl02sXlkwoNgAAm2RAsW7lYrINB0KzAQDOU44QbcMS7SIUGwCAjTKgWDeh2Z8quyiEZgMAjFP6SaHZy9Pu600AAGCjDCjWr43Q7KeEZgMAjFdCs78LS3FYjNQGAAA2yoBiG3ZxMXmsSjek+CwAAIxxny7vgOsrr0MbAADYMAOK7SiheUKzH5Rjnt4GAICxmgjNvjah2AAA3AQDim0pAdG/hQOh2QAA5xGafT2/Rig2AAA3woBiW4QbfqqEZtcBAGCMQ/6BvnJebRzdCgDADTGg2J42QrOfeheh2QAAY7Vxs3xOQrEBALg5BhTbtIuLyWNVhGYDAJzjPkKz51L69zYAAHBDDCi2q4Tq/RQOSmj2DwEAYKwmXS4C0ylDoPsAAMCNMaDYtiZCs4/dRWg2AMA53sTq/qkIxQYA4GYZUGzbITS7DQdCswEAxhOaPY023fAHAABukgHF9rVx0fNUyaOoAgDAGG30lZdk6AMAwM0zoLgNuwjNPlbCst9HaDYAwFjlOCKh2Zfh2CwAAG6eAcXtEJr9WBWh2QAA52giNPu1ypDHcwgAwM0zoLgtJSBaaPaDu329DQAAY1n9fz6h2AAA8JEBxe0Rmv1YE6HZAABjyU84Txs5HgAA8B8GFLenTTek4IHQbACA8droK8doY6gDAACPGFDcpnLMk9DsB0KzAQDOs4vQ7Jcq/XcbAADgPwwobpfQ7Meqfb0LAABjNfv6OZwiFBsAAHoYUNy2Epq9CwdfRWg2AMA5Sl/5WxjyewAAgE8YUFBC+tpw0Ozr6wAAMEbJVfhr5CsMadIthgEAAI4YUNDGxeRT5firKgAAjNFGaPYp5TjRKgAAwH8YUFCU7fjCDR8IzQYAOM8uXRg0n9JjAgDAEwYUHAjNfqza1y8BAGCs0lcKze5XRY8JAAD/YUDBMaHZj9URmg0AcA6h2cPq6DEBAOD/MaDgqXJucBsOmgjNBgAY6xCa3YY+TfSYAABgQMEnDheTQrMflGMKvggAAGO0+3oThpQeswoAANwwAwr6lO34wg0flCDDXyLQEABgrF30lUOEZgMAcPMMKBhyv6/vw0EVgYYAAOcoOwV+Cn2q6DEBALhhBhSc0kRo9rF6Xz8EAICxmgjNHlJHjwkAwI0yoOA5wg0f+/ZjAQDwckKzTyv9pdBsAABujgEFzykXk19GaPaxtxGaDQAwVptuSEG/chSWHhMAgJtiQMFLtBFueOwQml0FAIAxyjFP+sp+ekwAAG6OAQUvdR+h2ceqfb0LAABjCc0eVkWPCQDADTGgYIxmX7+GgzoCDQEAzlEyF4Rm96ujxwQA4EYYUDDWmwg3PCY0GwDgPEKzh+kxAQC4CQYUjCU0+1NlhZtAQwCAcdp0Qwp9Zb+30WMCALBxBhSco023k4IHAg0BAMYrxzzJOesnNBsAgM0zoOBcJYvCxeSDKt0FJAAA4wjNHlZFjwkAwIYZUPAazb5+DgdlC75AQwCA8Urewi700WMCALBZfwy8TrmY/J/Yen5Qno9/plsJCADAy5UjRN9HX9lHjwkAsH1VusUp1cf6r6PfF599rD5tz6///PhrqXK06iKz3wwoeK1DaPbfM/wBuTVlhVv50O8CAMBLtelCs8uQQl/5KT0mALAEVaZdUNLm4Sb7llX7qtMNJA6Lv1/TA1dPfu1T7uOWfvIf6XrKXRYytPh9o9WEOdVZ1/tj6voQq//Wos663ltK3VJVAab0RZbpLuv6rpqzPsR3I3B5Vdb1XTim6gCXdp9pP7dNtqkMH+p0O2I/ZDnfk+/TPedXvTZYypPhzbx+Tdb1Hpm67CpZhzrrel+NqSoA0K/a17/29TbLVC7c1vLzVo8JrF2VdX0Pjqk6wKXdZ9rPbZNtqff1Ll3vvaTvx776kK4PrzIjIdlcUhOh2ccEGgIAS1Rubr//+Guzr6+zPEKzh5Ue820AAFiq0meXfq0MJUrffZd1LDCp9vVNukFFedxfZQYGFFxauZj8LRzcpXtOAACW4l0er4qafZXUC5U8ijb0+TZ6TACApanT7TApg4km6971Wu/rl3TDirtMyICCSyvBKn/NQlPhr6TsoqgDAHB9ZSXX05VQxzsqlkRfeZoeEwBgGap0N/NLT73E3cmvUaVb4DTZoMKAgim06S4meVC+pKoAAFzPXYbP9K3S9StLU3bmfheG6DEBAK6nLPApi0bKzftZjkO6oirdoOJ9Ltx/GlAwlV1cTB4rX1i/RKAhAHAdVZ7PxqqzzPys+319H/roMQEArqMMJMpg4taO3azT/bkvlolmQMGUynnGQrMfCM0GAK6hysuPcCoXWEvclt5EaPYQPSYAwHwOC0RufZFIk25QUeWVDCiYmtDsx+5ywQkjAMALlJvX1Yh/vywy+SLLIzR72F30mAAAUys98t+z/eOcXqpK93zc5RUMKJjaIdywDQdNBBoCAPPoC8V+zlKPDSp95ZcRmj2kiR4TAGAq36S7GV+FY+WaoWRTnL1YxoCCObT7ehOOCTQEAKZWLqKanKfKMkOz28g5O0WPCQBweeXm+4/hlCZnHjtqQMFcdnExeaxMF196FjQAwFhVzh9OHNQRmr02ekwAgMsqw4kmvEQ56v9dRjKgYE5l0vhTOKhyxocWAOAZVS53k/rbj7U0zb5+DX2qCM0GALgEw4nx7jLyfqcBBXNrIjT7WDkTWqAhAHBJ5YKgyuWUXmWJodnlCNE29LmLHhMA4DUMJ853lxG9qAEFcxOa/akm48MrAQD6lAuBOpd1CM2usixCs09roscEADjHa7Lc6DR54U5sAwquoU03pODBpVc6AgC3Z8oLqSrLPJqyTbeTgn56TACAccrOYYHYl1GOHX12J7YBBddSjnkSmv1AoCEA8BpVpr+QqrPMbIOSRSE0u58eEwDg5ap0O4e5nPJ8nuxFDSi4JqHZj1XxJQgAjFeluwk9hyWHZv8c+lRZ5u4XAIClaWL36aVVeSaP4o+B6yoXuP+TZQYvXkOd7kNrFSAA8FJlB0GV+ZRdFLt0O2KX5NBXVuGpkkWhxwQAGHa3r6+zHCVnrU3Xc//z418f/t5TVbpdCqU+//jXS7rXWvr0/013DfEJAwqWoORRlFV/VSiadF82VgECAM8pw4LPM7+y67MEVLdZjkNo9t/jSKM+TfSYAAB9Su/4Nte3S3cj/7cM3MwfqU43qPjLx99fU3l+d0P/8PeNVhPWpHxY/pV1vcemrPJcVGEOddb13hhTVQDYshKKfc2fM3/PMtVZxs/hJZYeE+hTZV3fZWOqDnBp95n2c9tkfm9zve+p0p81mX6BTfXxv/Mhye9Xqru+ByaDgqUok0Fbzh8INAQATimLO6YOxX7JY1hiaPYu+sohekwAgMeqDNw4n1jZ/Vt61j+lGxz8O9NqP/53yn/vTa6zE/qbvr9pQMGSCM1+rIrQbADgU1WW0yMIzV6fKnpMAICDktVVZV7l/udcg4k+9+mORp37PmxZ4FQ//ZsGFCxNucDdhYM6y1yZCABcz9yh2M8pvUqd5Sl95dKCvJeizjLOWQYAuLZvMp8yjChZvN/mOoOJY226xzF3rtwnPagBBUt0rW1GS1W+LL4OAMD1QrGf8y7LyzY4XABe++JvqZroMQGA2zbn7ol2X39Ot9hoSXaZd0hR58lxowYULFEbF5NPleOvvggAcMvKaqMlHqdUVOmODVpatkGbrq+knx4TALhlX2UebebfqTBGm3kf393xXxhQsFRlO/534aBc7JeL/ioAwC0qN5GbLFt5jEs8NmgXfeWQQ48pNBsAuEV/yTzWcFpMm25IMceC8UfPuwEFS3YfodnHqnTHJwAAt6XKekKNlxqaXXYK6Cv7VRGaDQDcnjrzLNL4PuvJ223TDVOmVufouTegYOmEZj9WR2g2ANyS0ri/z7p2US41NLuJ0OwhdfSYAMBtqTO9Nt1CmTUpGRm7TO8/x4waULAG5dzgNhwsdWUiAHB55cikKuuzxKMpD6HZbeijxwQAbsn/ZHpl98QaM3bn2EVhQMGqlA/yXGegrUW5WSHQEAC2bcmh2M9ZarZBm3kuuNZKjwkA3Io5ep5d1qnd1/9mWp8ffmNAwVq0EW54TGg2AGxbneWHYj+nXPQt8digXfSVQ/SYAMAt+CzTL6TZZd07d6c+msoOClbpPt3WKDpVBBoCwBZV+3qXbbhLtyp/aYRmD6uynfcfAECfKtP7W9Ztl2lPs6kOvzGgYG2aCM0+ttSViQDAedYYiv2cJssMzS7HZwnN7ldHjwkAbNccx5Buoc+ccsjyn9fAgII1Em74mEBDANiOsrK/yvYs9dggfeUwPSYAsFVVpreFLN1dplWV/2NAwRoJzf5UWeFWBwBYs3IU0tfZpsPOkCWGZv81DCk9ptBsAIDxtnDfss0M/hhYp3ZfbyKD4Vg5K7gMbtoAAGvzVdYfiv2cKt0N7zdZlrL9voRmO9KoX+m39ZgAAOMsbWHOOX7d158ynbb8HwMK1qx8SEpo9hKDF6+hysMFpN0lALAeVW7n5vhduguR77Msh6O1vglPVdFjAgCMtYUBRdFmYo54Yu2adIMKOmULvoENAKzHFkOxn9Ok2zGyNCVvYRf66DEBAMapwosYULAF5ZiANhwINASA9ShHNFa5PUv9c+srh+kxAQBe7i/hRQwo2AKh2Z8Smg0Ay1dWpC9xJ8Eclh6ara/sp8cEALagzfTKDtStHPM0KQMKtqJNdzHJg3JWcBUAYIluIRT7OVW6nRRLU0Kzl5aRsSS3uusHANiONtMrwwm7T1/AgIIt2cXF5LHyRfhLTGsBYGmqLPPG/DWUQc0Ssw1KaPZPoU8VPSYAsG5z7Zb9JhZ2PMuAgq1p9vVzOCjbyX4IALAUVZZ5tNE1NRGavTZ6TABgzcqAos30Ss9vYdIzDCjYonIx2YaDuyxzZSIA3KJyU7cKTy312KByhGgb+tzFsQUAwHr9I/Oo477cSQYUbJHQ7E81EWgIANd2y6HYz/l3ltm7lcckNHuY0GwAYK12mU8TQ4pBBhRsVRuh2U8JzQaA67mLUOwhbZa9uKSEZn8XhugxAYA12mVeTQwpehlQsGW7uJg8Vs69c+Y1AMyvivP6Tyn9Wptlu4/Q7CF6TABgjcoilLkXyDT7+hCLOx4xoGDrfozQ7GNV3CABgDlVcfP2lO/39WvWQWj2sCp6TABgfa6xAKVKN6RYagbb7AwouAXlYvK3cHAXW8oAYC4uPIbdZ33HXgnNHnYXPSYAsC7XXChzl24hU+mfqtwwAwpugXDDTzUR0gkAUysXG3Xo02adR3GWfnLJeRnX1sR7HgBYj7KgeZfrqdL1T3/PDS9sMqDgVrQRmv2UFZ0AMJ1vIhR7SJt13+RvI+fsFKHZAMCafJ/rK8fB3qU7+qkMK8ppMFVuhAEFt2QXF5PHBBoCwDSqGE6c8ibrPybpPsu4mF0iPSYAsCa7LCtn7It02V6HYUXJ162zYQYU3Jryob5GAM5SVel2UgAAl1HFzdlTyk39XbahidDsIVX0mADAepQFNEvc3VuGFWVndrm++Fe6narffvz7m2FAwS1qIjT7WMmiEGgIAJdRgvaq0KcsEmmyLUKzh+kxAYC1aLP83bFlAVTpr8ruirKzYjMDCwMKbtEhNLsNB82+vg4A8BrlZuznoU+bbR57JTT7tCbdhTQAwNKVU1d2WY++gUXZaVEGFnVWxICCW9Wm277Fg/JFXAUAOIdQ7GFttn0Tv42+8pRy1FMVAIDlW/OC5jKwqNMNLA5HQq1iYGFAwS3bRWj2MYGGAHCesqX6xzDkFnaulqO9hGb302MCAGtx2B3bZv2eDix+//hrk4UNLAwouHVCsx+r0p1fBwC8TBU/O08pN+1vJfurSTeo4FNVfE4AgHVo0y2w2eLu3zrdsbRlUPEh3U7XckzUVReSGFBAt9VJaPaDOt10FQB4nlDsYVsMxX5OOeqpDX3qCM0GANah3Cf8c7bd11X7uku3iOQQuH2XKzCggI7Q7MfK0EZoNgCcVgb6QrH7ten6iVsjNPu0JnpMAGAd2mznuKeXKDspyo6Kw86KLzITAwrotOmGFDwox1/N9mUEACtTQrFv8Qb8S7TpLuZuVRt95Smlx6wCALB8bbqdFD/ndlTpdlL8/WPdZWIGFPCgbN8Smv2gnD/3SwQaAsBTQrFPszM12UVo9hCh2QDAmpSdsXe5zXuG5brnsKviLhMtMjGggMeEZj9WRaAhAByr4mfjKeXCTbZXp8ltrbYbo4rPEQCwLuWe4Z9ymwtxqnSDirLI5OKZYgYU8KlyXMMuHNQRmg0AB6Upr0KfssjDzpLHSl/Zhj519JgAwLq06YYUZVHOLWaOVekW4Rx2VFyEAQX0exMXk8e+jXO2AaDcTK1Cn39Er9BHaPZp5T0jNBsAWJuyKOfWsimOVXk4+qnKKxlQQL823fnJLiYflC1cQrMBuFXl56Ab8P3afX0VhrQRmn1KucDXYwIAa9Om20VQdlTc8qCiDCledeyTAQUMK+cnCzd8cAjNrgIAt6VOt5WZfmWHQBtO2eU2gxVfQo8JAKxZG4OKJq/YTWFAAacJzX6sikBDAG5LlW77Mv3KTfc2vETpK4Vm96vicwYArFubx4OKNrelSpfXN3pntQEFPE9o9mNlC75AQwBuQVnZLRR7WNlpKhR7nNJX/hb61NFjAgDr1+ZhUFEybne5HVW6hc2jjnwyoICXKecGt+FAaDYAt6A01lXoU0KxmzBWyTfTVw7TYwIAW3Kf7jjUMqwoO49vZaFKkxFDCgMKeJnDxaTQ7AdlhZtAQwC2Sij2sDZCsV+jTbeajn7ls6fHBAC2pE238/jPuZ2dFU1eeISnAQW8XJlyCjd8TKAhAFtUbr43oU9ZrCEU+/V20VcOEZoNAGxZm4edFX/4+GvJv91le+7ygp0UBhQwzn2EZh+r0l1AfhYA2IYqzsE/peROtOESyio6fWW/Kl2PCQCwdbt0O7fLoOL/y/YGFk2eGVIYUMB4QrMfK1vwR4XfAMBCCcU+TSj25TURmj2k9JiGhQDALSm7lXd5PLAoR86XgcWae8ZmX/XQPzSggPMIN3xMoCEAW1Buvlehzy6OvZqC0OzT9JgAwC0rveKv6fqhkl+x5oHF4BGeBhRwnsP5y0KzH5QVbnUAYJ3KbsCvQ582Qp2n1Ka70KSfHhMAoDM0sPg5yx9YlN3qvaHZBhRwvjbCDZ8qXzRVAGBdhGIPE4o9j3JBqa8cpscEAPjUYWBxl25g8ad0C4t+zTLV6R7rIwYU8Dr36c5jplNFaDYA61JlYCUP/0+5ad6GOQjNHlZFjwkA8Jw23b3KsqviD3nYXbEkZXfso57OgAJer8lyJ5PXINAQgLU4hGK76dmvLMK4D3Mq2/WFZvcrPebbAADwUofdFeUoqLKzYpfrK9dejzLGDCjgMsqHvA0HdxFoCMDyOTZmWLmYacI1CM0eJjQbAGC8chTUfbqjW8sxUNfeVfFNjhaJGVDAZQjN/pRAQwCWrKzE/ir0aSMP4ZradEMKfWU/PSYAwPnadAuLy6DiWsfWP9pFYUABl9Om20nBg3JWcBUAWJa72B0wRCj2MpRjnuScDdNjAgC8TpvumuhaOyq+OfzGgAIuqxyH4GLygbO9AViaKrKSTnFs5XIIzR5Wekuh2QAAr9emW8BVrgPm3MFb+ri6/OaPAS6t2dfncWzEQZXuRpDdJfP7y77+b4A5lAG141iWr4rB+SllkcWvYUnK1vfSV9bhqRKarccEALiM+3Qh2uV6qco8yr3TnQEFTKNcKJWLpioUd+kmsnaXzOvHAHNp0zVzLFu5mVmFPkKxl6v0lXNeKK7JXfSYAACX0qY77nWu3rMsrP3WEU8wDaHZn2pi9R8A1yMUe1gbq9CXrI3Q7FOa6DEBAC6lzXz3NKt9fWZAAdNp011M8kCgIQDXUALYmtDHoop1KKHZ34UhekwAgMtpM98CptqAAqa1iy3nx4RmAzC3KoYTpwjFXo/7CM0eoscEALiscgTsLtP7woACptfs6+dwUO3rXQBgelXctDxFKPb6lNDsXehTpcuZAQDgMuZYdP3fBhQwj3Ix+Vs4KGeAvw0ATKsMxKvQ5z52lqxVOUK0DX3uoscEALiUXaY/CtYOCphJ+TALN3ysibBSAKZTblLWoU8beQZrpq88rYkeEwDgUv430xKSDTNqIzT7KStbAZiCUOxhbYRib4HQ7NP0mAAAl9FmWgYUMLNdXEweE2gIwKVV+/oxDCl9SBu24D7znAu8RnpMAOCpf+3r9wlrq9pMy4ACrqDcNBGa/aDa1y8BgNer0t2UpJ9Q7O1pIjR7SJVuJwUAcFlrXQAw9Q7iKpzFgAKuQ2j2Y3UEGgLweuXmexX6/BTHXm2V0OxhJYtCjwkAl/VfmVabaRhQLNQfA1zDIdywrPKsQtGk+yFkdwkA5/hhX5+HPm0MJ7as9JUlV+TvcaRRnyZ6TACm81mm/fn77ywvO2yt/cY/9/VFplP+f++yPZO/3gYUcD3tvt7EURTHyvFX/4jdJQCMU0Kxvw192gjFvgVtunwRRxr1Kz3m32KnCQCXV3brTfnzd5eul1uSKtNqM42p++G/ZJtZeFWm9W9HPMF17SI0+1iZyv4Sq/8AeLmyUkko9rCyGKINt+A+QrOHCM0GYK2qLMvUO0aKqQYJUy+GLdclW+w1pt6l3hpQwPWVmyo/hYMqQrMBeJkqfmacUm5W78ItaSIIfUgV3xcArM/SbnhPeUTSQZtptJlWea3usi3lz1RnWnZQwEI0cazRsTrdWeIAcIpQ7GFCsW+XXTPD6ugxAbisNtOaY8fCGHWmNWXmxhz33f6Sbfkq07ODAhbiEJrdhoNv4zxxAIYJxR7Wxs/QW3YIzZY70q98Nr4OAFzGHD9v6yzH/2RaUw4R2kz/etVZ1uv1Wm8zvX8aUMBytOmGFDwoX4RzbB8EYF3Kzwc34Pu1WV6QIvNr0+2koF85YlWPCcAl3NKAosr0j+UfmdbfMr0Smr6FLIq7zLNbfWdAActSJsVCsx8cQrOrAECn3FRswhA7MjkoR6AJze536DGFZgPwWm2mH1IsZedfnentMq1dpldlnp0HU6oy35/hNwMKWB6h2Y9V6abPAFBFyO0pZZGDTCuONfv6OfSp4vsEgMtoM605gopfYo4b1lP3sr9mHms/UrIcp1tleuX1FpINC1W+yNxgeFBHoCHArSsXZu9jV92Qsrjhx8CnSl/Zhj519JgAa1L6wbt0PU/pCz98rL9//Ovy9+vMb+pjiYprr8i/y/R9eJvpe5Y28/VFaz1SsrzX5gjHLv5z7/P3jVYTWLcq3Q/atXzm5qgpzhuvk/yulFKvrDpMrdxEXNN7Ys6yqIHnVPv6V9b1vp6zZNpw66qs6zM7puqwBXW6AcRLX/cP6W6yVpnHt0l+n6Gu+fPqQ6b/873LPJokv89Upf+qsx5vM99z8+g7+veNVhNYvzJpdTH5uC49fa6TWR63UmrbVYcpvc263g9z1ofYVcLL1FnXe3vOKv220GxuWZV1fWbHVB3WrOyYeM0ilQ/pVv5P7Yskv89Q5edVlfm9zbY+r1Xm/R4qtfTFEOWz9i7zPicfjh/A7xutJrANc03i11IfctkfyHUyy+NWSm276jCVOut6L8xdbqoyRpN1vb/nrA8x7ON2VVnX53VM1WGtqnS7RC/xPnib6c21uPRD5v159VXm+3PN6X3m+XMd17sss9eoc50TXN4dP4jfN1pNYDvKuXVr+vxNXX/P5dTJLI9ZKbXtqsMUqjju8FQ5loZz3Gdd7/M565I9JqxJlXV9VsdUHdaoyuV7wHeZ1n1y0cd7qj5knhvdc57q8S7zqjPf6/X0tbvLMrx2h9Jrqzp+ML9vtJrAtrzPuj6DU9elAg3rZPLHqpTaftXh0krD/CHreh/MWU3gPOWzVW7Er+n9PmcJzeYWVVnX53RM1WFtqkzXA075HV8nkzzmofqQaYcUX2feI8erzO995n3Nnr5+d+n6srmV/+bbXPdI+fdPH9TvG60msC1V3Kh5WpdYOVpn2seolLqNqsOl3Wdd74E5Syg2r1VFztmpsjuJW1NlXZ/RMVWHtbnPer/jr/GztQxdqlxOuXl9n8z2+Eu9y3XUmf/1elrlPfMu039Xldf1LstZ/Fw/fYBLeFBTVBPYHqHZL/hSG6nOtI9PKXUbVYdLept1vf5z1oc4J5/LqLOu9/7cJd+FW1JlXZ/PMVWHNbnL9O+Jck9lqlXrTTL54++rD3l9vsE1V9VXuZ73uc5rNvTe/CXdEK3O696n5X9b8kPefvwzLule4runD/YPH//BFn0fQwq26S7Xmy4vUbuvLz/+eo46PVvLAEYq30O7cAmlkf4lDPlTzv+ZB0+VC2BHGvVr87oeE9akyvwBtXPRo61LeR9Wmd5U9wwPR5Re49ieg7LT9m/p3vdthnfeVumG8Z+nuy9S5zru9/Um11OegyVnUP073Wv474/1z4F/77/Tve+qj3XN9+Bzeq9nljI9uXQ1ge0Smv24yg+Tc79864kfm1LqNqoOl1DFcYanyrEzTEFfOVyv6TFhTaqs67M5puqwFnXme19scRfFc3/eD0e1pMdW5fr0QvNVkx7/J8AalRsUu3BQJt5W/wGsW7lIfB/HFw0pK/1+DFxeE7kmQ0qP+TYAzOGrzKf0nVMd5Vf6tX9nWY5X1ldZjtLftrm+co9NLzS9NgYUsDl/jS3nx+5iZSnAmr2L4cSQXewOZjrlJoq+cti30WMCzOHzzGuqgUj5ufp9eE6bZfW3pRda2mBpS8pz++XQPzSggPU6XEz6An1QdlHUAWBtygrlOVfNrUmb657Ly21o4312ih4TYHpT7WgYUmU6ZRfFLpzyZZaljV5oSid3yxhQwLqVLWjfhWMlWLUKAGtRBhNN6HNYadQGpreLvvIUu7wApjV35s9/ZVrlZrcFpf2WcrTTU7/G7pcpPHtUrQEFrN99fIEeK03NLxFoCLAGVbqbfvRb6sUb21UuHn8KfaroMQF4uTbdqRc8VvqMJsvVxD22SyrPZfPcv2RAAdvQxPbBY0KzAZavSheK7WZfP6HYXIugyGF6TIDpbHG3wS5udh/7R9aR69TE63YJLx5GGVDAdgg3fOwu3ZnmACxTuclXhT5le3kTuB595bC7CM0GmMLcA4p/ZB5N3OwuyvNdZz2aeN1eozx3L+6XDChgOw7nVDvj8EETgYYASyQUe1gbOQBcXxvHUpwiNBvg8v6Wec25W7DJbd/sPgwn1na/qom+/BzlOWvG/A8MKGBb2vjyfEpoNsCy3MXugCFCsVmScuNGXzlMjwlwWXMfL7jLvJrc5pCi7Ayus97FtOXI1T9Ff/4SbbprmdHH1BpQwPbcxza0Y+Vsc2ecAyxDFee3n1JuBreB5RCaPUyPCXBZ95nvJvYu1+m5mtzW/ZrSQ5QdmWs/6aNNd+P95zBkt68/58zBnwEFbFOTbkpNp9rXuwBwTVXczDulXKzeB5annB+8C32qGLoCXEq5iT3XDeBrDgmadDdy22xXeS3fZFuZTW26neBvYkHRsfJal0VWrz5y/veNVhO4beUG0Ies63M7db3teZ7qBT5OpdT6qg7PeZ91vaZz1i+BZauirzxVbwPrVmVdn7kxVYc1Kfcx/pVp3xPvsgxVusUpS/q8XKLeZ/tHIJb3aZN1vS5T1I+54OKzNf3Bx1QToMr0P9zXVk9DWeuFPk6l1LqqDqe8zbpezznrQ+wqYR2+iL7yVNWB9aqyrs+bz+a23WW698OHLO/m+V22sQjgXx//LLekyjaHTM/V+1z4c+SIJ9i2Nt32Mx68i0BDgDl9EwtHhhxCsdd+Li+3oYSXyjkbJjQb4DLuM83Pm9JvlTyENstyny6Eea1HB5Xntbxe5c9wn9vSphvKlD97OZ5s6z39fbprl1JtLmwNk5lzqglw0GRdn9+p60MeVqvWC3+sSql1VB36VFnX6zh3fRVYn7Kdf02fsznrQ+yIYp2qrOuzNqbqsFZNLvc+KKv7v8g63GUdOyrKc9rEz71j5bm429ffs/zXb3Gv85qelDHVBDh2n3V9hqeu9x+fl3oFj1Uptfyqw1NVnFl/qprAer3Puj5vc5ZMGdaoyro+Z2OqDmtWQpZf+x74kHXucKuzzPs479PdhDeYOK0MxMqijvL+W9pr+Fz96+NjrzOjNT1BY6oJcExo9qf1NgYUSqnLVB2eKsfBrOk1nLPeBdZNX3m63gbWpcq6PmNjqg5rV+3r14x/7beywv+wKv8+18uCep9uWGQocZ4yrCjPX3kel5rnVR5bkyt+Zy7xSblENQGeqiLc8Gm9W9FjVUott+pw7G3W9frNWR/i4o5tEJp9uhzhxppUWdfna0zVYSvqdDfpP+T0a/4+2z56qE53s7vs2JviKKHys708h4cV9PrWy6vTvYb3uc5xUB/S3Qv7Ngt5jf+Q7oFtUQloaQI8VefheCMALqMEhe1CUUKxfwx92kwUKgdXchc7goaUoMw/x+eddajS3bDaIj3aNpUhebmpWh39vfK9u8v2g4qfKs/D8fNR6r/y+Ln57GP9Ow/PT/vx139+/H35+7/Fz61refoa/nceXsPPnlSf49e2/Np+/PX/fvx9qd+e/HuL8ccAt2aXboD3NgBwWYezVun3XVz0sS336T7334Snyg2EsiioDClu7WYZwNR+CweHwQzrdtPv6bKDos42tXEBCKd8FVv1AC5lF31H+ZlShhP/Hfr8bwxv2K5yRIC+sl+54fBrYNnK53erx5LtokcDWLT/Hz1zDCnO3mHgAAAAAElFTkSuQmCC;" parent="pP8O4rAKiQuBhvKMOiU7-2" vertex="1">
          <mxGeometry x="20" y="20" width="89.21" height="18" as="geometry" />
        </mxCell>
        <mxCell id="pP8O4rAKiQuBhvKMOiU7-5" value="" style="whiteSpace=wrap;html=1;fillColor=none;glass=0;shadow=0;rounded=1;" parent="pP8O4rAKiQuBhvKMOiU7-2" vertex="1">
          <mxGeometry x="40" y="80" width="80" height="80" as="geometry" />
        </mxCell>
        <mxCell id="pP8O4rAKiQuBhvKMOiU7-6" value="" style="whiteSpace=wrap;html=1;fillColor=none;glass=0;shadow=0;rounded=1;" parent="pP8O4rAKiQuBhvKMOiU7-2" vertex="1">
          <mxGeometry x="195" y="80" width="80" height="80" as="geometry" />
        </mxCell>
        <mxCell id="pP8O4rAKiQuBhvKMOiU7-7" value="&lt;font style=&quot;font-size: 18px;&quot;&gt;UI&lt;/font&gt;" style="text;strokeColor=none;align=center;fillColor=none;html=1;verticalAlign=middle;whiteSpace=wrap;rounded=0;" parent="pP8O4rAKiQuBhvKMOiU7-2" vertex="1">
          <mxGeometry x="50.20999999999998" y="106" width="60" height="30" as="geometry" />
        </mxCell>
        <mxCell id="pP8O4rAKiQuBhvKMOiU7-8" value="&lt;font style=&quot;font-size: 18px;&quot;&gt;API&lt;/font&gt;" style="text;strokeColor=none;align=center;fillColor=none;html=1;verticalAlign=middle;whiteSpace=wrap;rounded=0;" parent="pP8O4rAKiQuBhvKMOiU7-2" vertex="1">
          <mxGeometry x="204" y="106" width="60" height="30" as="geometry" />
        </mxCell>
        <mxCell id="pP8O4rAKiQuBhvKMOiU7-27" value="" style="edgeStyle=none;orthogonalLoop=1;jettySize=auto;html=1;rounded=0;curved=1;startArrow=classic;startFill=1;endArrow=none;endFill=0;" parent="pP8O4rAKiQuBhvKMOiU7-2" edge="1">
          <mxGeometry width="80" relative="1" as="geometry">
            <mxPoint x="130" y="146" as="sourcePoint" />
            <mxPoint x="130" y="96" as="targetPoint" />
            <Array as="points">
              <mxPoint x="180" y="146" />
              <mxPoint x="180" y="96" />
            </Array>
          </mxGeometry>
        </mxCell>
        <mxCell id="Pzwiaud8rbPkmB2iagg_-1" value="" style="shape=image;verticalLabelPosition=bottom;labelBackgroundColor=default;verticalAlign=top;aspect=fixed;imageAspect=0;image=data:image/png,iVBORw0KGgoAAAANSUhEUgAAAHgAAAB4CAYAAAA5ZDbSAAAABHNCSVQICAgIfAhkiAAAAAlwSFlzAAAC/AAAAvwBpCekMAAAABl0RVh0U29mdHdhcmUAd3d3Lmlua3NjYXBlLm9yZ5vuPBoAACAASURBVHic7Z13fFRV3v/fN71XSIMkEJpA6EWRkgihSFGRIqKgzyKrKOuuylr20X1Wxd+Kru5acBFWLCBFQFF67y1AAqEFCJAECCQkpPdkzu+Pydy5d1pmkpmxsJ/Xa165955z7z2Tz3xP+bYjCSH4L6yHJEktgS5A14ZPa8AfCAACFX9dgVtAbsPnpuI4G9gphLjt8PY6mmBJkkKANkAMUA+UAeUGnzIhRKWD3t8RuKfh/YHoSfAHKoAc4Lri73UgRwhR1nB/G2A4MAJIAFraqWka4AiwCdgIpAgHkGFXgiVJCkX7jxgJ9AZi0f4zrYEGKATSgOMNn2PAJVu+eAMhU4EBDZ9Qa+81QAlQCrRq4v22Ig/YjJbs74UQtfZ4aLMJliSpBfAsMBboA7jYoV1KFAMpaMneDuwy/PKSJLkCY4Bn0P647N0GFby9vYmPjyc+Pp7w8HBCQ0MJDQ0lJCSE0NBQvL29KSwspKCggNu3b1NQUCB/zp07R0pKChqNxtIrMoBXhRBrmtvWJhPcQOwc4DnAz1JdX19fYmJi8Pb2pry8nLKyMsrLyykvL6e21uYfahGwDvge2ApMAOai7YJNom3btsTGxhIcHExISAjBwcEEBQVRUVFBfn4+t27dIj8/n7y8PDIyMqivr1fd36FDB+6//34GDBhAjx496NixI66urra2W0ZhYSG7d+9m+/bt7Nixg/Pnz5uruh94SQiR3NR32UywJEk+wOvAHzBBbEREBCNGjGDEiBF07tyZ2NhYQkPN95K1tbUy6ZmZmaSkpJCamkpKSgpnz56lrq7OUnNqAXfDix06dCApKYkhQ4YwePBgWrWyvpetqKggJSWFo0ePEhMTQ+/evWnbtq3V9zcF165dY8eOHXz55Zfs2bPHsFgAK4HXhBCZtj7bJoIlSYoGfgR6Ka8HBQUxe/ZsJkyYQI8ePZAkydZ2mERVVRWnTp0iJSWFnTt3snHjRsrKyszWT0pK4qWXXmLUqFF2eX9j0AhBSXkVxeVVFJdVUdRwXFVTi7+3J4F+XgT6eBHgq/34e3vS2L/myJEjzJs3j7Vr12LATTXwL+BNWyakVhMsSdI9wFogXHctODiYF154geeff57AwEBr39lkVFVVsW3bNn744Qd++uknCgoKABg5ciTz5s2jR48ejT6juraO4vIqyiqq8fbyIMjXC29Po07AJIQQXLtVzJajF9h/OpOM6/lU1VjsYVTwcHOlR7tI+neO4e67orkrNgwXM4ynpaUxa9YsDh48aFh0FHhQCHHDmndaRbAkSdOBhYCn7tqsWbN49913CQgwPUm+eD2ftEs3uJ5fwvX8YnLyS6jXaPDydMfH0x1vD3e8PfUfH0932kaGcFdMS1q3CGr0l15fX8/+/ftxdXVl0KBBRuUaIci4ls+xC9c4dv466VfzKCqrpKa23qiuh7srQX7eRIb4E982gvi2EXSPiyQ82PTUQgjYdSKDheuPkHG9wHJDLSDAx5O+nVpzd+cYhvftSICPp6pcCMGiRYt49dVXKSwsVBZdA8YJIU409o5GCZYk6RFghe7c3d2dTz75hKefftqobvK5q2xMTufw2Wzyi8sbe7dZ+Hl70Ck6jLtiWtI5JozucZFEtbButVVSXsXqvadYueskBSUVTW4DQHTLIIb37cDIfh1pF2U8jxACVuw6wSffH6CmzviHYwt8PN15eEg3pg7rSViQ+od18+ZNxo8fz+HDh5WXy4FHhRDrLD3XIsGSJMUBqTSsZUNDQ1m9ejWJiYmqeofOZrFoQzJpl6zqNZqE9q1CGdqrPYk929GxdQuj8qqaOv790yHW7D1lU7dpLdpFhfLIfT0YN6Az7m7qGfSFa/n85T+byLxZaOZu6+Hu5sq04b15anR/PNz176murmbGjBl8++23yuo1wP1CiJ3mnmeWYEmS3IEDQD/Qrv2OHDlCt27d5DrlVTW8/sUW9p260pzvZBP6dGzNR7MfwMvDTb6Wk1/C7I/Xkp1X5PD3hwX78cSIPowfFK8ioKqmjg++28sP+0/b5T0x4UH872ND6dOxter6O++8wxtvvKGcgBUDQ4QQaaaeY4ngD4AXdecLFy5k5syZcvm1W8W8+Nk6Lt9wuDpVRueYMBbNmagid9WeNN5fuQeNxrk69bioUP7+1CijrntnagZzl+ygpKK62e+QJJg55m5mjrlbNSf55JNPeP7555VVrwMDhBBXjZ5himBJkhKAXYAEMHnyZFauXCmXn8vO47mP1lJSXtXsL2Et/H08+fYvj6rG4mU7Uvlw1T6ntcEQHu6uvDBxMJMSuquu5xaWMuffGziXnWeX9wzr3Z43nxyh+mG/+uqrzJs3T1ntLFqSS5QXzRG8Dq3qkTZt2nDixAl5GVRWWcPUd5aRk19idJ8j8Y9nxpDYs518/t3uNN5bsdupbTCHhB5x/N/0JAJ8veRrJeVVzPxgDZdymj7LVqJLbBj/fuFhfL08AO0Me/r06SxdulRZ7TUhxLvKC0Y6W0mSYoHRuvO5c+eq1rjvLN3hdHLH3NNZRW7a5Rt8uGqvU9tgCXtOXmbK3GWkXLguXwvw9WL+Hx+iVQv76AfOZuXx5wUbqKvX6rAlSWLx4sX07NlTWe2ZBr28DFNK+ad118PCwpg0aZJcsO7QObYdv2iXBlsLVxcXZo7pL58Xllby6qJN8hf9pSCvsIxn/vk9m5L1euUWgb589qeHaBHoa5d3JKdf5c2vt6HrdN3d3Xn55ZeVVWLRGl1kqAiWJMkDeEp3PmPGDDw8dF0CLN541C4NtQWj7+5E65Z6Kfjo+/3kFZpXV/6c0AjB377axt40/aqiVYtAPn3+ISMlRlOxKfk8q/fqJ8wTJkwgPDxcWeU55YmhBE+iwaDt4uKiUmYkp2dz9ZbjlyFKuLq4MGO0Xnqv3ipi45F0p7bBVtRrNLy6aCPHL1yTr7VvFcpHf3gQT3c3C3daj+U7T8hS7OHhwVNPPaUsHt6gvwCMCX5EdzB69GhiY2PlgjV7T9mlcbbAUHr/s+Go05dDTUFNbT0vfLaes1n6WXS3thH8YfxAuzw/O7eI5PRs+XzixInKYgnoqDsxJFgese+//375Yn5xOXtOOk+ZAcbSm51XxKbkX7b0KlFRVcMfPl6r0hM8cl8Pene0j4PIgdOZ8nHr1q0Ni2W3IpngBt+paN15r156i2By+lXqLXsg2B3D+3YwkN7kX4X0KlFcXsXLn2+QDRySBH+bPhwfK61XlnC7VG8xDAkJwcVFJavGBKOQXhcXF5Xp7cK1/GY3yFYM691ePr52q5jNR816PfyikXmzkAXrDsnnUS0C+OMEY+uXrShUEOzi4mLoVGGZ4E6dOuHj4yMXXLh6q9kNsgVuri7cfZfcmbAzNeNXJ71KLN2eyqkrN+XzCUO60V/x/ZqCwjK1zb9FC5UBxjLByu4Z4LyTCe7ZPgqfBo0NwH7FePNrhEYjePPrbSpb9OxmTriKy9RqYgMJltdNJglWakdyC0spdqLOGWBgfBv5uKyyhpMZjjNDOguZNwtZuOGIfN4lNkz1PW2Fr7eH6tzAlUm2dCgJlmc0QUFB8sVrt4qb3IimQvnFj5zLdvoEz1FYvuOEygnh92PvbvKzQv29Ved5eSrDhjweKAmWp3Y67RVAbZ1z/7kRIf7ERYbI5/udaGt2NKpr6/h6y3H5vGubcO7tGmvhDvMI9tfPkYQQhgTn6g4aJdjZ0tMlNkx1npx+zUzNXye+33eK2wopfnJU3yY9JzRAT/Dt27cN3YtNEizr0ZQEO1up3yZCL71llTXkFpY69f2ORlVNHUu3p8rnvdq3IsyMc58lhCgIzs3NNSy2LMHu7vqFuLMJjg3Xj/+ZN53nLeJMbDqSLuuSJQmSenew+RlKC5UJguX+Wqn9/sVJcGPuQN6e7kQE+9MyyJfSimoycwuprLZLzFaz0aVNOIk94mjVIpBAXy+C/Lzw9/GkuLya/OIyqmpqZX/spD7tWbYjtZEnqtGhlX5ZdOWK0TxFnmQpCf5FjMFtIoLlY0MJbhHoS0KPOBJ7xtE1NlzlQQFak+aNghKOXbjGgp8Ok1fkXLOih7srT47sy9gBnYkKNe3m26oFgHqe0SnatohUD3dX2rfSKzaOHTumLC4DsnQnSoJlVZHSybpFgH2M1dYg0NdLdkkByLxZhIskkdAjjseSetGjXZRFh3hJ0qoCH2jRhcQeccxdupOdqRlOaDlEhvjz3jNj6BwT1nhlA9gaH3ZXdBhurvrR9ehRlZ0+RQghS6WS4Es0mJlOnz7NhAkTAGjXqqnhtbbDz1ttFI9vG84fJwwkNjzYzB3mEeDrxXtPj+bb7an8c7VjHfPCgvz4+tVHVBMfgIrqWk5k5HC7pIKiskrKqmoI8vWmZZAv8W3CCQ/xB7DZQb9rG72Bv6amhrQ0lcesim0lwadREKxDaIAPQX7eFJU5JABfBUPtzO/u72eyXnp2HnvTrnD5xm1yCkrIKywjLMiXtpGhJPRoy9BeekPFY0m92JN2WeUvZW/8aeIgFbmXcgr4fN1hDpzOorrWtBP+i5OGMHWYVmNoq4utkuC0tDRqamqUxRYJfhjg1Cm1cb9dVKjKQ8FR8PPyMFuWW1jKyl0n2XbsIjduGy+dCksrOZuVx4bD57i/fydee2yobJabNry3wwjuHhfJiL6yfZ1DZ7N4+fONtGoRwP89kUR0mHZVUFlVy5vfbOd6vlYzqHThKbWV4LZ6gg26Z7BAsMxqRkYG1dXVeHpqG+Esgv29jf2W8ovLmb/2IJuSzxvN6AN8vfjrtGEM6RGHiyRRWFrJtuMXWLzpGCt2npB7gEHxbWkbEcIVByy7hvbSe3tWVNXw1tfbcXd14b2nxxATFqQq69omXCbYv4kEB/h6Ed1S/1wDgm8LIS4rLyjXwXK/XF9fz7lz5+SC9k4ah2Mj1GPtuew8pv99JesOnTO5XIsI8SexZzs5BDPY35uHB3fjw2fHsWrPKWrr9Ib2R4f1NLrfHugWFykfHziTxa3ickoqqsm8eVuOkSoqq+TgmSy2Hrsg120qwXcbmBkPHTqkPFVNp0EtwRfRWiE8QdtN66xKpiLrHAHDZdEL89dZjFK8cPUW249fZFC3trLXf71Gw+WcAm4VlbH12AXG3NMZgLs7N8/+ag7K/805hQ/WnAUb6BobzvC+Hdh27KLKHgwQotAl2zK/GdJD9qcjIyOD9HSVG9Nhw/oywUKIekmSztFgNlROtJxFcHmVWknh7tp4LpW//Gczo/p3Yvb4eykqrWT3yct8uVn7Qz52/ppMcFRoIN6e7nZXhFRU1+DXMDlUBqNpNIJTV24aEatDRMMMGiDXSjdgVxcXlaVt3TqjyNGNhhcM/ThPY4JgP28PwoP9Ha4XrqxWzQbxtjDp0kEjBBuPpJt0p1WGjUgStI0M4WymkVqvWcgtLJPjeVta6eAe6OulijO6aWLSaAq9OkSpJmcGBN8EjJK1GIqIzKrRTLpVCI5GZbV6SeHt0Tw/4ss3bqNRKBHaO6AnUjrhtwyyzmgQrpBewGrBGdJd3z0XFRWxb59qfb/OVD4xQ4JlVq9evUpxsd7Y74h/jiEqDLrP5nofVtXUybNWcMxQoyQnLMg6CY4IVhNsrQQnKsbfTZs2GZoIfzJ1j1kJBjhz5ox87Kxx2N64pMihERdl/17o5m29BEe1CDSbVEWJiBC9pFdU11ql6GgXFaoKnTXonivQJokzgopgIUQ22hR+gLqbdgbBvl5qiS2vqjFT03rkFOgjIUMdoFfPytXr7QN8POljhWO7MgVEhZXfMUEhvXV1dWzatElZvFUIYdJxztQ0VZZiQwm2V2yNOfgaTKrK7ECw0n84yMD6ZA8cTb9KWaW+nSP7dWr0HmX9AB/r2jS2YTUAsGfPHoqKVHFiJrtnaIRgpRnK3c2V7nERVjWmqTDURZdXNp/gIoV7aZCft4WaTUNNXb3KYjW0VzuVpccUyir1XbKHu2ujgtOnY2tiFI4QixcvVhZrgPXm7jXVEnmxfPToUZU7pmFCEHvDx9OAYHtIsEKJ4OHuqlqe2AtKDVWArxf3dDGbNhOA0kr1mNtYaOnDg+Pl44KCAtasUeUo3SmEMOu4borgXbqDuro69u/fLxf06eRYgv281Y4G9kiHVFWjnpl7eTQ/LsgQyelXVbFCSuODKZQZ9EyGjgtKBPp6cZ9C3/3NN99QXa36gSy09C4jghsSXso+ILt2yXwT3ybcoeOwj2KSZY/uGdQqQV1uSXtDoxFsV2Q+GNqrvcXhoLRcLcGGQ5MSY+7pjIdiUrZo0SJl8S20uUPNwtxgIbOqJNi9Ideio6CcZNljggVq99Ki0kqV4sOeWHfwrHzs5eHGo0PNGzfyS9T6dUsaMGX3vH//fpURCPhKCGHxH9UowSkpKZSU6JcajhyHfb30Y5FhN9ZUKAnOb2ZqQ0s4l53HkXP6oOzJid1V8VVKVFbXqr5fSzMKkl7to1Q+agsXGvXGiwwvGKJRguvr69m7V5/Rxpp1XlOhXAfbY4IFavfSgpKm58+0Bos36Vcd/j6eTBzSzWzdPJUGzLSKc7xCeouKili9erWyeLcQotGMOCYJFkJcR2s+BNTddFcHjsPKtL6VVfax+oQqCS52nAQDHL9wjbTL+kC5x5N6qSxMSuQV6X9spnTYUaEBqsnakiVLqKxUmRUtTq50sLRgkxNcOmscVv5waixnercayi66udlnrcGXCikOCfBRjaFKKO3cof4+RuVPjuorr6c1Gg2ffvqpsrgA7ZYGjcISwTKrJ0+eVLnSDurWxppn2ww1wc1LzwtaxYYyUsJapX5zsP/0FVVGhBn39zc5FiuVIYbfNSLEn3ED9JqrFStWcOHCBWWVb4QQVrmBWCJ4t+5Ao9GwcaPelqzMOmdPKLsze0RU3NezHa6K3BWHzmZZqG0fCAGfrj0gnwf7e/PEiD5G9QL9FGkPK9RLtydH9pX11RqNhrlz5yqLa9Gm9rcKZgkWQuSi3bsIgO+/1/cIUaEBNnvjWwOl3ri1HVIAJvXRu8+mZ+c5Ldb54OkslZPi1GE9VUMFQKBCB630yQoL9uPBgV3k81WrVplaGmVjJRrziZF1Yps3b1YN8vc5QIrPX9X7NHVo3cIq05s5BPl501eheXN2CsaPv9dLsbenO0+Pu0dVrkpcqiD4yZF9ZOkVQvD2228rb6sF/p8t7WiM4B90BxUVFWzevFkuULqL2gvpilwg3p7uKgW7rRjaS90970hxTgiLDmcyc1XvfHBgF9X3CfRVSrC2i24Z6MtDg/STsjVr1qgsesASW7fWsUiwECIdkPsHZTcdFxXaLAJMIT37liqbzigrTG/mMFGRw/mcE7tnJeb/eFAO3nN1cWH2Q9rEK1EtAlRuszo99vSRfWS1pAnprQPesbUN1mwBJ7O6fv161U5l9u6mS8qr2Jum99ueMKSb2XWkJfTp2Fq1r8MP++yTZt9WZOcW8eMBvQpzaK92dG0TToLCt0oIrfdnVIsAJgzWK0bWrl1rGHO01NCp3RrYRHBRURE7d+r3f1DGANkLK3edlI+D/b15aKDpdaQlTFU4uZdUVP+sCUwXrj+iik+a9cAAkvroA75PXblBfnE5Lz+SKP+YhRC89dZbysfU0wTpBSsIFkKkAJm68x9+kIdlusSGm1WzNRVHz19TBX7/Yfy9Ng0FkSH+DO6u34ruxwNnHLILi7XILy5n1W69JN7TJUalKNqZeonEnu1UuoUvv/ySEydUWyItE0I0aRJh7S6dMqtr166Vd86UJMesiRf8pA/H8PZ0550Zo4y2sjGHkf07ybNvjRCs2mNyMxKn4uutx408RkHbu2xOPs+cyUPka7dv3+aVV15RVqsB3ja811pYS7DcTefm5qq2W5uYYF6h3lTsTL3ETwrzW+eYMD567gGr3GhH9tPrb4+lX3P69gOmUFhaydJtKUbXv9x0lCn39VBFObz22mvk56tyg35gjVHBHKwl+CCKzC3KjSDiIkMadVFpCt5fuUe1D1L/ztEseHGCxfT4cVGhdFCkNthy7ILZus7G4k1HuWKQc6SyupbHh/eWz5OTkw0N+tlot841giRJnpIktZUkqYskSWZ5tIrghpQAcje9ZMkSbt/WN9aScbupqKyu5U/zf1Lpj7vEhrH27Sd4QrGcUGKUQnpr6+rZ5aT0Ddagrl7Di5+tV+mdX5g0WGVQmDVrlmE6h+XAA5Ik/VmSpE8kSVorSVKKJEm3gCrgMnAGyJckaaUkSb9v2AFdhi27j3ZF4XH57rvvymOFEDDhb9+QnWv/lP9hQX4sf2OqSjEAkFdUxr60Kxw8k8XpKzeprKnjq5cnEdfgv7037QovfmZxW7+fBZMSuvPKo4lG1+fPn8/s2bPt8Yo8IFrn6WHr/sHbgCSA6OhoLl++jJub1gLkqH2Mpo/ozfMP255f+bMfD7H/1BWu3CyU44R/CXBzdWHlXx9T5R0pLCwkLi7O0Ne5OXhMCLEMbCd4DAof3JUrVzJ58mRA26WOfm2xzekILGFkv47M/d0oObNOZWUl169fp31769fftXX1pGbk8K/V+36WxOY6SBI8NDCeWQ/cY5SsRaPRMH/+fA4ePMjp06c5f/48tbW1eHh40Lp1a6Kjo40+MTExREdHU1BQwOLFi/n73/+ufOR+IcRgsJ1gCUinIVnLvffey4EDeqX6v9bsNzlbbAr6dmrNJ394UF4e1dXVMXbsWLZv385DDz3EAw88wKhRowgLsy5tUU1dPfOW7+bHA2car+wAvDwlgcmJjW9gDdpt7wsLC2nZsqXVu6m/9tprvPuuatOzeCHEGWtn0QA0hCd+rDs/ePCgKkfE5MTuuLg0f3v39q1C+cczY1Vr35kzZ7Jlyxbq6+tZs2YNTzzxBBEREfTu3Ztx48axbNkyi8/0cHPl9ceH0d2BXqHmMLJfRyNyi8oq2X3ikslM9u7u7oSFhVlNLmC05S/aDc6sXiYp8RUgDxYfffSRXBAVGqAKcWwKwoL9+Hj2gyon+DfeeIOvvvrKqK4QgtTUVLKzsxk3bpyq7Jutx/nd+6v4TqFFkiR4ZUpis8yQTcF0hcG/orqW1xZtYuTLXzBnwQZmvL+KPScvN5qVTyME+cXlnM3MZfeJS0bpmUykM7wANnbROkiS9D4wB7S/tqysLCIjtZJx+cZtps5d1iSPDD9vD7748yRVJOPChQtN7jauQ6tWrTh8+LBqa5mP1uxniWKoePbBAaqcW0/9YxUnnJRFvnXLQNa+/YR8/t6K3aofnRL+Pp60iwqVA/1uFZWRW1RGXmEZt4rKqddoCPT14uUpiSqFTnFxMT179iQzM1N3qRRoJYQobYoEA3yKVgFObW0tH3zwgVwQFxnSpHWxu5srH8waqyJ33bp1PPvss2bviYqKYsOGDSpyl+88oSIX4IuNR1U/uNH9O+MsdGyt9nzZlXrJbN3SimpOZOSwZu8plu1IZdvxi6RdusHN26UIBJMTe/DDW9NV5BYWFpKUlKQkF+ALIUQpNK2LRgiRBazVnX/88cecPatXLc4c09/qfBWg7TrffHK4yqn+yJEjTJkyhfp69RLH1dWVvn378v7775ORkaHa/mdv2mX+aWI/4eraOtVSqWeHKKvb1lwY5v5SxjBZAx8vD4b36cDy16fy8pQElSdIfn4+Q4cONUxGWgH8W3fSHAfnd4DxgEttbS3PPvssu3fvlhv1xvQk/jT/J6u2w/njw4NUPsAXL15k7NixVFRo3VxjYmKYOHEiQ4cOZdCgQartbnVIz87jf7/YYjI0JSTARxV0VmMmvaAjEK8IuRVos+levlGAuZHRw82ViBB/7ukSw5DucfTp2MqkoWXLli0899xzXLqk6hFKgDFCCFlH22SChRCpkiR9BswGbVDykiVLmDZtGgD3do3lTxMGN7rP79RhvVT62Ly8PEaNGkVVVRVPPvkk06dPJzEx0eKMcveJS7zz7U6TKZLc3Vx5Z8YoVZZaZ7jP6qBUqUrAyr8+Rm1dPbeKy8kvKqegtAJ/b09CA30IDfBtNJT08uXLvPjii/z4o1HMWSEwUghhNpVhU/A62h1LwwHmzJlDYmIi0dHapGNTh/Ukp6CYFTtPmrx55pj+Kme08vJyxowZg6+vL+fPnycqynxXWlNXz6EzWfxnQ7LZrdQlCf46PYl+BmGvlU60D5v6Xbq7uRIVGmA2p7QpZGdns2DBAj788EPD8FHQOsIPFUIYzd6aRbAQoliSpDnAEtBK34MPPsj+/fvlndPmTE4gvk0E7y7fJQdcebi5MueRBJXXf11dHZMnT+bYsWPs2LHDiFwh4NTlGySnX+VYQ4iIcqMpQ/h5e/DW/4xQpR7SwZmLJCWJGo3GcI9Bs9BoNCQnJ7Nu3TrWr19v6L6jxBrgpYZ5kRGaHWQkhFgqSdIk4AGA1NRUpk+fzqpVq+RudVT/TgyMb0NqRg4VVTUM6tZWtc6tqalh2rRpsnN9v37qNMLLdqSyfMcJk1lmDeEiSQzv24FnHxyg2l69pqZGzmRviwKhuVBmxpk3bx579uxRqRzDw8MpLCwkJyeHGzdukJOTQ05ODufOnTO0CxviDPBHIcQOS5XsFUX2OFqbcTxo3T2nTJnCwoUL5QmRv48nQxSuNDqUlpYyfvx4duzQtzM5OZlhw4bJ5xOHdCc0wJc9Jy+TkVNAdm4hdfUaJAk83Nzw8nCjbWQI/e+KZmS/jkYJxG/evMnFixcZPHgwYLrbdATc3VxV9uvTp0+zZcuW5j62BPgrMF8I0ehYYxeChRClkiQ9gDaVXguA7777jiNHjrB06VIGDTJtDbp06RKTJ08mJUW9bn3uuefYtm2bPJZ7uLsysl9Hef1Xr9FQV6/Bw82tUbJ27NjBY489poqtdZYERwT7q7RmBmtVW3Ae2ARsBvYJIayOorNbHKgQ4ookSQ83NMIHMN0VMQAABe9JREFUICsri4SEBJKSkkhISGDgwIEEBQWxb98+Vq9ezb59+2T/LiXOnz/PgAEDWLZsGUOGDDEqd3VxUTm1m0JWVhbz5s3j888/R6PRqAzpzuqgld0zWEVwDVo1cBFaUjcCm211dlfCroG+Qoh9kiT1B1YCXUE7Wdi6dStbt25t7PZitLPBOIDr16+TkJBA7969eeqppxgxYgRxcXEWpa+8vJw9e/awYsUKli9fbpjqT4azJFg5waqurubGDZV69F60vzUdoUW2SKa1sHsktxDijCRJ/dBanZ6y8rYbwEjgOloHvwRdQUpKiqyu9PPzIz4+ns6dO+Pi4kJ1dTVVVVVUV1eTn5/PsWPHVI75Bu2Sj50lwZGheme67OxsZRsKhRCHTN5kZzgkVF8IUQnMlCTpR+BJYABguKgtATag9fXarNOdSpI0AvgPMM3wuWVlZRw+fJjDh43yXlvTJsWJczw8lBJs0D2bXrg7AA7NTSiEWE+DB4gkSa3REt0LOABsM5UhpuHadEmS3gX+By3R4Yb1rMAp4DYNvYGSYOGkzb6UY7ABwU4LlHJs8kkFhBDXgFUNH2vqnwX+LEnSa8AQoDvaZVhXoBPaFH6VaJXrlWi9DC+iTT2xSwiRKUnS65ggWMJJBJuX4N8ewU1Fw1pvJ4qcITZANt2oumiN47toD3dXVXZbA4Lt735qBk21B/9aIM9K1WOw4yU4MiRAtUb/uST4jiFYBScQbGhI+C/BjoH8j1SNwU5YJymXSCbWwP8l2E6Q8/mrCXb811YaOgzWwKC13ToFv3WC5X9kVZU+VVFjak57QCnBJlSU5x3egAb81gmWZ6vKYLmQIOsN7U2FhSUS/Jdgu0GWYCXBwQH2zUpgChYILgeuOrwBDfhNEyyEKEebW0pNcKC/uVvsAi8PN1X8kQHBF0xtYOUo/KYJbkAhqAn29vJ0aOb6yBCLSySnZoS5IwkGda5IeyOyhbqH+C/BjsV50O5WooQjttjRoUus3jZSUVFhuAY+bnSDA3EnEHwc4No19Q7msWH2zdKnxL1dYuXjffv2KdfAlTRNp95k3DEE5+bmcv36dfli51jr4opthb+PJ/Ft9dEMBp4s2xts5U7DHUMwwPHj+t6xU2vH7MXY/65oVYy0AcFOTxrymydYCHETrSuQiuDOseEO0WgpE8Pl5OQoN9oWWNiCzlH4zRPcgOOgjVjUIcDXm+F9O5i9oSno0S5SlcpJmX4ZOCiEcE5QsgJ3CsGbQOsjrVyyTFMEvTUX7m6uvD5tmOyxWVVVZZgzo8npCJuDO4XgVUBdXV0d77//vnyxU3RLJljY28hauLq48OKkwbSN0G9A/eabb3LxopyBcKcQotkhDU1Bk1I4/BohSdJG4H4vLy8yMzMJD9euVes1Gp77aC3Hzl+z/AAziAkL4u3fjaBrG/3M+cSJE/Tr10/nly2Auw3DOp2FO0WCoSECsqqqihkzZsgRFa4uLrz3+9HERdq2/XuArxdTh/Vk2euPqsjVPV/hdP/9z0Uu3FkS7AIcBXoDvPLKK6oxsrq2joXrj7B2/xmKzexQGhbkR2LPOBJ7tqNPx1ZGs/ALFy7w+OOPK1NLnQMGCyEKDJ/lLNwxBANIkjQQkDdE/vbbb5k6daqqTl29hrTL2sQn+cXleLq7ERkaQOsWAbSNDDXr7rNgwQJeeuklOe0EWpPgQCGE00yDJiGEuKM+wLdox0Xh6ekpvvrqK9EcHD9+XIwePVrontnwyQfu+rm/qxDijiS4NdqIB5mQkSNHipMnT1pFaH19vdi7d6944YUXRJs2bQyJFcBhoOvP/T11nzuqi9ZBkqROaMNc2yivd+vWjYkTJ9K+fXsiIiIICwujrKyMzMxMsrKySE9PZ+PGjeTlmQwtKgP+F/hUCCf45VqJO5JgAEmSItDG3/Zq5qOuotUxvyfM5Mn4OXHHEgwgSZIH2vQTL9IQz2wlTgE/AmuFEE6179qKO5pgHRrSJI8CxgEd0Aahx6D157ra8MlGm/F+rWjCBlU/F/4/qq+RtVSEDv0AAAAASUVORK5CYII=;" vertex="1" parent="pP8O4rAKiQuBhvKMOiU7-2">
          <mxGeometry x="501" y="190" width="40" height="40" as="geometry" />
        </mxCell>
        <mxCell id="pP8O4rAKiQuBhvKMOiU7-9" value="" style="whiteSpace=wrap;html=1;rounded=0;fillColor=none;" parent="1" vertex="1">
          <mxGeometry x="439" y="160" width="380" height="240" as="geometry" />
        </mxCell>
        <mxCell id="pP8O4rAKiQuBhvKMOiU7-10" value="&lt;font style=&quot;font-size: 18px;&quot;&gt;DB&lt;/font&gt;" style="shape=datastore;whiteSpace=wrap;html=1;" parent="1" vertex="1">
          <mxGeometry x="459" y="250" width="60" height="60" as="geometry" />
        </mxCell>
        <mxCell id="pP8O4rAKiQuBhvKMOiU7-11" value="" style="shape=image;verticalLabelPosition=bottom;labelBackgroundColor=default;verticalAlign=top;aspect=fixed;imageAspect=0;image=data:image/png,iVBORw0KGgoAAAANSUhEUgAAAl0AAADCCAYAAABzLXeUAAAACXBIWXMAAAsTAAALEwEAmpwYAAAAAXNSR0IArs4c6QAAAARnQU1BAACxjwv8YQUAACgpSURBVHgB7d1PdhNZsj/wuCn/QKYHz7WCFrN3+pRdYlDYNUKMsJlgVoBZAbACzAowK8CsANekMCOLSRemBwhcXacHv3NQDd7gjZ578LDcTWa8iCvJpI1kS8qbmTczv58+bv6UMUZKKSMjIiMMwcyaK6utiE2TDf9ATA39PSb+MBcE7c6vr3YIAAAAYMAQTE2DrZDpsfy0dc6ndQ3T9sd3u08IAAAAKg9B15SWlm8/YIq2pvgj3Zqhm523u10CAACAygoIJra0svp4yoBLNSQrtifZsQYBAABAZSHompAGTcy0SbPRwOs5AQAAQGUh6JqQZqsomdb3K6stAgAAgEpC0DUBLSvKDw1KyPSb7wEAAKCC0Eh/AS0rhhG/J2MWyAE2dPO3t7ttAgAAgEpBpusCYUSbrgIuhWwXAABANSHoOsfiyuqG5ALvkVvo7QIAAKggBF3nSSkrJdku14EcAAAAeA5B1xiumufH2Gi2Ws5KlgAAAOC/GsE3tHk+Ykp3d+K/547/+7/+f5sAAACgEpDpGiGLQaZszANkuwAAAKoDQdcZtnn+/EXWjvBC9Ln+kAAAAKASMKcrxs7k6k+eb1AmzGFt/uhqp90+JAAAACg1ZLpi7EyuzAIuJdmuo/kNAgAAgNJD0DWgWa4UZnJdiIkfEAAAAJQegq4BBwutZ9XAsFQAAIDyQ9AllpZva7apQTnBaiAAAIDyq3wjffbN86NhETYAAEC5VT7TlX3z/GjIdgEAAJRbpTNdzetr66Hhl+QJZLsAAADKq9KZLgm4npJHsAgbAACgvCobdKW80HpWWIQNAABQUpVceJ3JQutZYRE2AABAKVUy0zVonvcSFmEDAACUU+WCLrvQ2vjcO4VF2AAAAGVUqbsXNYMUHtXfk3+9XGdgETYAAEDZVCrTFR3N+9g8PwIWYQMAAJRNZYIubZ5n4sKU7bAIGwAAoFwqE3TluNB6VliEDQAAUCKVCLps83whyoqnYTUQAABAeZS+kd6XhdazwmogAACAcih9psuXhdazQrYLAACgHEqd6Wr+eLsZBtF7KrhaFFzr/O2XDgEAAEBhlTrTJQHXS8qYYT5k4mfG0BNiekEOyL8DdzICAAAUXGkzXbrQmjnbdT/yYHYDQzc7b3e7w98b7Hnc40QlTgxLBQAAKLpSZrrsTK4o+5lcZwMupb+ODN2nRLAaCAAAoOhKGXTZ5nljMl0aLWXFztmAa8jefShlR0oAi7ABAACKrXRBV14LrdnQH+f9dxOYZ5Tsb0C2CwAAoMDKl+nKacSCoaB93n8PevUtZLsAAACqq1RBlzbPU04zuSLD54506HR2Do0JEt7NyAthr75OAAAAUDilCbps83zGdyvGzdV7F87RCmpmmxLiCIuwAQAAiqg0QVfEJvOZXEO2iX6CcQ6dv/7SkTpkmxIwxjSxCBsAAKB4ShF0afM8EzcpJxc10Z/6XKInlBBWAwEAABRP4YMuLStSzkHIRU30cTo+QoeoUjItZLsAAACKpfBBlw8LrS9qov9W0vERyHYBAAAUTaHXAGmWK2T6RDmrzfe+m2ZFT7O5vhBeOvqUdIArFmED5MeOb/nfKw2aY8m2c/+1bMyhHQ1T73WwtgsAzip00LW4vKoBV4NypE30H9+9vkZTWlpZ3eTk2artg/3dhCuGAGAadgAz2wHMrfM+z5DpsOFnNaL2uG0VAFAthS0vLi3f1tEJDcrZNE30cfLAb1NiZh3DUgGyoZn175dXOxJwPacLAi5lb+6Rz5Vs/N7iT2uYrwcAxQy67EwuirxYiTNNE32cvfJNOD4Cq4EAsmFbGSJ+L6WBH2h6DYr4pWS3M19PBgB+KWTQ5UPz/ND0TfRfuRgfgdVAAOnTbFXSHkxms4XXKkC1FS7oal6XNH0OC63HmWQS/Tg6PgLZLgC/2R4uJxd5eK0CVN0cFUxo+Cl5YtJJ9OcxbH5m4hYloNku+WGTIBVy0n1OOWDmfwZ6N5z9hTkMAuraO+PC4BB3rWaIed3VPUfcv2DcJACopEIFXbrQmtmPsqKatYk+Lji+vB1eOnqcrHTBC3o1fvB2d5vAPaYNyoGR/8nxfvJNSFm9L4j0zt3+3XEUdQ0FbwIpc3c0cwruMd1weJ93Q/vDcDcjQDUVpryY90LrUWZtoo/rdHYOTZB8WOrgFnaokP7qK7MuPz61d8gtr7J87GkAbjc1gBsJe7nO+uJJPyoAZK8wQdeged4rSZro44JefYuSw2ogUK3BmIJPEoA9b+KYSATBKwC4VIigyzayetQ8P5SkiT5Os13JG+qxGgi+sTHIgO0h+JpRr46p8gDgjPdBlw8LrUdx0UQf52J8BCHbBaO1BsHXc2RupmMviBybCwMEcgAV5X3QFbHxYvL8WS6a6OPcjI9AtgvOJZkv834wAgEmpDcskEO48xSgurwOuvqT59nLuTYumui/+ZpsfqbkWshmwHi8oD1fS9dXEZxP7g250yYAqCyvgy47BdpTrpro43R8hJ3DlFDEfgaq4A/J1G5quZHgQkHNbJMr7OBOZQAoLG+DLndToNPhqok+ztX4CKbgHtaNwAQ2EHhdrPPXXzpMDoIlQ9sH717tEABUlpdBl6/N80Oum+jj3IyPwLoRmNjG4vVb3mx58NVv+68eynvSC5rdh1q994gAoNK8DLp8Wmg9iusm+rj+3VKcuLcLi7BhYsY8XPxpbZ3gXAfvdjfktf/EEHUn/TNygXaof+Zgf7eZ1oUaABSHd0FX88fbTR9ncsWl0UQfJwETsl2QrYieI0i/2G9vdzeD+d41eRO4r5kvvbPRxPow9ec2KJNSovy3R8GV46v6ZwgAgDzcvRgG0UvyXBpN9HE6PmJxZbUtb+otSgCLsGFyvBB+vqwlfZTALjDIWG0PPgAAJuZVpksXWlMB9pKl0UT/jcjFXU79RdgEMAkpM2LcCABAerwJunxcaD1Kmk30cfYuJwfjI7AIG6aBcSMAAOnxprxom+cNeS/NJvqzdHwEJ7+L064GshPvIXcH+7sTH+X/KRciQRgs1Aw3TMBNJrphIvnRmNR6rwbjRjbR9A0A4J4XQZctgRUkI5N2E32cjo8ILx09oIQn2cFqoDZBofzj7W538FMtZ9v5Ts3m+kJY763rc8qplOJ5ITqa35CfOLiZAwAA4nIvL9o7pgq0LzDtJvo4OyzVBElmAw1hEXZJ6DFx8HZ3OziuX3MysHMEJr5DAADgXO5BV9Sre7nQepxMmuhjJMhzMsEai7DLRYMvHdipM6DIOdPE+AgAAPdy7aLS5vmQ6RMVhDbRf3z3+hplTMqve0nHR6iaoaudryUrmNDi8iqTI9P0dE3q++W1LUP8gBySYO5mEfsA5T2lFbFpsuEf7G/w2Qs6PpQn84+Agm4QmXbnb79kehGVNxtM/++VBtWiZiQXuxHzgjHmP0h+lHe4EYE2H5Ixh8z8T/uYBdSlL6ZLf/rcrVLfn50fKY/ZF+bmuY+Xoa6xx5cdoNsluUjP+nEa3IHc0udXjvU/f/u99p9T+zN5XuXf06nl9L2m4ewxbh8DJe8Fxj4OPOaCUo5zfWzkQx6TD/LnurXB8+jyvJlrT5e8Ob7UR6IosmyiP/X3kp2C3aKEBnem4e60ktGM19Ly2g15w2iSI4EELjRlH6B8Dw/lymTqDNmXMNj5PUHw07y+th4GUhKNeF0u4hbsK2bs24qxV5ryWJH8mbb89OaFX19OYvLmvUEOJP23Tst+72zWNQiVbHcrPJIgNIhOHh/7aHD/Z6P1/7t+nn3M5I/KwUF0VNfnu8MUSZARvAkMdzopB+lLK6ubNINZH3MN4CXI0v7Je6GJFoaPw7mP1+DQC4e/lsdJLtra8th9mItq22kE+TbI6NXl2JfXgD7H9jUQd/Z7Nd88/2Hse5V/b1uC6xdFuUCPX2iNOsbj+Nx4Y/jf5FhnWtefDZ9HfVxIAzA2Pyfdn5pb0KXN8xJlOztJZCHLJvo4Oyz1+q3DpA31uDOtvOQN55k8wc6WV59kiqb7Uw+Yp28VmAtCPa6nvhiwN+BE/DTUQE/fL82USUQz8TqfBjsqz9dqUZf6N0akRk/C0ef6A7lI1BNwaxgJuL687Qf5crIjG+zqiUl/uy2P6wvJELRdn7RnfQ7kMddMx/1JP39p+fYDCSYfhv3MiIt6UEu+TisMogfyGOm2gifal0kJaUAtQeHD8DPdk6+5QI6+18Fxs7m4fGunZsyzjmcZb3t8H81vyHN042uQmc4xHtOy/294Y3F5TbNhO7UoeDZLEJ1L0DUoKxauxyjLJvqz3IyPOFkNtElQKrVefSe8dPSUXI2TYP6OssJ0Y5pP11KPnMCe2pK7mf0sY6S0QiXy7Uk4Fy17IiTqZ8LkYiCNAGwqkumjCYIuzZjIeem5nMwblJ6GXhxJ8PV41uBrEHQ8lszWQ0dB4RhGg+l1zfLUDN3P8zn8ms2TrOPR4EIi1X/7eWw2f0Pegza+v36ro+fmaZ7HXBrpfV9oPU7WTfRxOj7CxbBULMIuJ7so3dAbcsbMkOmajRyTEzfuaxZC3uzek4Ny+7Cvpej0sVu6vvo4jPi9nIQfUIpz3KZhM2ESYGjfrmRNXjZzW6rOC+fdva2Pn1QSXsr3uUfZnZeGwddUO091MX34+fIneWyzbBPRYPSTlHfvUcb0QsIe2/JvDvuZ/BZ5xMh718nzOOE2j8yDLvuNeb7QepSsJtGP4258BBZhl5Xb8ne2J+4vvfq5rQZ6YvpB3tgkC7FFjjBNXF70lmb9vhzV21IS2vQl2BpNsiYRv5ST06c8xtcE0eiTta26HNXfy2OXU0AoGRP5+yc5Yds1efIY5vU8S6VlWwMgyoBmHeVY2dNgz/9j29rQoH1xgguLzIOuwdVE4eTVRB/nanzEYBE2lIy8KXbJGc70TS5gHvtmZctmEli4amY/ERU706XBi2T9XkqFJbOspAMNyoG8f39TwrZlaskOUv5VF2232Tsv8LIXHB6sydMAKO3Aa1FvjOnHCS0qloYGxRc9PpkGXVoaoAKWFVVeTfRx9hZ+42KyPBZhl1Et4MIGETymnDno/9xLI7DgAj9e+vo12ZbDnJDnsZvTKJJWvIxnjysJWD3KoPQDrxGlxqXltafOLzgSsIGX3qmcEr070BQ4C31RYJpZ0GUXWlNU2LJWnk30cTo+glzAImzwyrd9XfrrL2zXHzUoBXNhUMiga7A2zdmdqllKZ5jvZMJe3WZT9bgK/QxYG+Hny6dO1lpSzLh/ayLyPT39i84uS+vr53icuHBeYJpZ0FXU5vkhXwZF6vfh6CoAq4HAI7xwtq9L79BKtXT2p89dKhj7mi1owKXvWy5GJSRgS4x6XJGv5yJjHg7fl22iwoOS4jg1vYM4JXqcFDnbpcYFppkEXfbKrIDN80PaRE8+MeSgoR6rgcAv8Wbn/qykdK/wizivLihen8sJdtIakegb0PEHez5mjuJM/264vQL0P7fSbVNJZ7dsliQwfXk2g59NpqvgJ3cOjFdBl6vxEYRsV6mEkdP+lC5lbNjsnE0rQvGa6PW1ygV+L61R3iUje3NIi/zXoP732SDPccSp3ZQVHF/ednSey1Pj7LSA1IMue5trgcuKyrD5QB5xNz4C2a4yMcbdCcXk8mZnVw9l0opg2E6GLxST4gkuA23sfS0fnVOV1oW7Pc8Fxc92nZ2NmWrQ5XtNelK+NNHHBYa3yI3WpEPdwG+zre4Z97XyyATxgl0unkErAhdsMGp/vqFJrXE5dY5aIsA/5417Sfy13VV1csR2bdHwV6kGXSFzao12WfKliT7OXjU66pEYLMKGArMnZXaY6SL2KrvrXrFWAIX9gKtBDtlspqFt+bgvpd2b/zZ0Nf6hv6cfhswjJn426/uNBw30kCLd6UspSZLt0uNucNyeHN+1+d53B/u7Jv4RRsE1uQq7K/+QF2k178v3cWf489R2Lw5ua04tAs6Kd030MTo+wjjoUcAi7OKzJTmne8iCLpWZMf9DRRJNt5/yInoyql05vug13x382I7/ppaTTEQbUs6+wRMEgkW8/V8DUm38NxS80aHD8ZluxvZO8vqk//606fcaSSYxkNfs2e81YNNk5qZcRN3h1GaS8YIOmp1l+fMkNNsVXjq6cL2Vfc4CoyNm3tTqvZ1Jz2e/979v/dA/O5yB99jxc2srSposSSXoKupC61F8a6KP0wycXSqrO84SwSLsIhu83pxebfpYUndJ4tPcN0xMRReQOwqq5cT85Ld3rzdpRoPMv35MFIDVKOe7FqdgAxjJrNTmj7cuOGmneYKelK5/enKw/7p93ufo/9mZd736w7R6eKOAW9QPXJzTbNfSyuqzUTeRDANOCch2LngcJqZZWXlPbUdMey6f16i/eH0rlaBLvvgDeWk3qAR8a6IfQXslEvd6DJr9tpDtKhY76PHI9a3l5vC3t6/aVFD9EoGRTMXpXhB5LS8QRw17xc8Fu3sxoD9ratuFuSs9V/2gpwKwfnVDyyixPYZSvixMA72Ul4Irxw8/TvEemNYJ+iKRlHz/vv9q4udx8L6++Zcfb+/UTLjnehK/y37SUUZku9okwfHHX3d3KAV6zMrzetOuiXL0WA0fI+dBV/+quzw9Qr5f8etttXIwPk5+YCDbVTT26vWorsNyG+RU9IYKIl4G+hKZ9qU/fe5edOGgAwsvFXAwqiPdtC6sBn1b2/YcIOVuzX5FVIwG+n72b3eTZpDGCXocPd4Drt08mLGUp6U0yU7eNY5ngJkoabXlfDbb9dPakyiKGlFU2/49pVLmqb9TntdxGbaZDHpunQddRV1oPY6PTfRx56VepzVYhL1J4D27rPfILjtukGvGpHL16NgHQ2Y7uNLbnjaIyOIN21/p7xocZLY2qDB4J0m5Vem/WTJ9j9LeFhCa4MnHd8mOXz2nLV5ffeHyLmE2QYNS9vHXyTN7rkzaTzahhv2a5NBgOm2DSsLnJvo4e1utE1iE7TvNbuky1TCI3lNKrzVtQiVP2R4OKa0c7O82P0p5pTLlcHZ1tyUvYCDyV1qKrhnziBywmb40p+5LqXaakuJ5aoHri2teGLWsu+g0qUEO+7o1C+ws6Brcsl6qQZs+N9HH2QPD1Ysdi7C9o68t+diwq0GO6v+jy1QpLdqD428g8yEIzDVXJ54iMQ7niumaGczm6wvJPHPZc2bY/EwpcTnR3+XIoRO9eumCLiWBubN2iy9yoeysvDi4Zb1BJVKAJvoTrsZH0GA1kO9l1aJqTpBJjOSFKc/nnyW7sSAltKaU7BuUkfxXtYzB9OLg3e4GVZVt/HfUSS/Hl7aBaB9StafEm8P/Z9hpVjeQryePrfP5lNpz1tl3+1xpgMhk7zp0IwxKGXSxw9ldOm7ESdBl+0tMVLoMSZFum7d1+pXVtosBmYPbitsEzoVT9XwYd6fZyf46T+80452Dd683qNq65JYEXua9lKq3Pr7bLdwcLSckQHJ9vNvm6+XVrus7GecC2ibHXAeIX2pRKYMuuRDthuRIwAtOyothEL2kEipatsdhahuLsCvIxyyXy56bIkvnApAXtFQtZetPlezljFIqBRp35aiBVPZW2q9Z/IXShZM46CrDQutRitJEH+dyKzsWYVeLLV94mOXS4Y9YlCyZjl49zfcj7cd9Pgy+qtLvVbty1KZ0dMmhNFdyGVPyzRMeShR0lWWh9ShFaaKPc7yVHYuwq+PDrDOKUtbGzr4+pzfLjGeDL503JQFY2Zvt22ndMMKOg64ozREupuw7Vv2TqKfL/b43fxSpiT7OzhW53HOSpRoswi7NoFv4lpbvAuPnjtQi7uxLk/PG57F/kZ1JtBEy6R2z7ZpcyHV+fVWE2W0TS3Whe2QOtVTgCm5qSsaOsojfWakN/6f7zxrxz4/O/DpknSTvLtCZOegaLLQu7XiBou6e0yvixeVbP8tBcocSwiLscrPTrQPj5R1sGgwe4GRzirvtE1NpSearJcFXV+KI7SCgF+Uo96ZXVqsFfBg6i7lSX1fVpRIYBFZNfW2EuoqKecEOAmZuhp9J31C+vmaCaMobgd1mlmYKugb73krd81Pkqws2ZkveIBMHXVgNVF42w8W1u523v3TJQ2xw9+xZLrdPzKChTfcSTGjj/XbN2OCrTQVVnIvqci+en9Wg9K3rpjaMMT+En6OGDax4GE0NAiXjXylupp6uqFfXdTENKqkiNtHH2YDR0UlrsAi7lLcCV9WgpHiz4/M6nCi9IZNF9vHt7qah3PtNtfS4p8N6i3rX41wYIHtfMBpofb98a8sOiWb6ZFcOGronJfdmxtnfRKYOusrcPD9UxCb6ERwtmj3JdkE5fLABl+clohqbLsFIXyJz35Nb/Vvxux6pQLy+4Igz5Sj/JaFzQG2gFfF7ueDQhE+LCmzqoCtiU8qZXHFFbaKPq/XqO67emNlgNVAZaGO67iwsQk9OYU6KOdCF3XJheJf8Ye96/P76rfe449ktyUr/QRVl98wurz0d7JltFSmbdZ6pgi69mrGpvJIrahN9nOPxEY3F62te3uEGk+CdmqGrUnbepEIwPmRxvKYtBBJE3ySPGGNXVn1avH7rqectCV0Cr0nw3gqP6u8l3ihdlWXioKuMC63HKcstujo+wlkZwvADgqKxJ+aD/dd3i3XHGaZkT0LfpzSYNr4FEcY81BMmsl4wCx24bvu1Sto3PnHQZWdylbh5fqjoTfRxdqAiYTVQlegYCN2h2A+2dm9ixk+5aTCtPXq6EJz80t/tuLLqY2tCl8BLWk4se8/4REGXvWKpSF9PSZroT7DDRalYDeQpCbKGgVZw5fjqwdvd+wi2qkMDr4N3uxtyDNz3K+vFC3IC3fY08ALPaIarjOXEsyaa0zVI9VWF62WludKT7+LKaluuhFuUnM124YSej34WyxxKcNW108kNH/5bSoj/wG5CEIOVSdvae6sXSOxJZUIDL3nf+APvGzCO7RcveYZr6MKga2n59gOmqEEVUQuD0t01JW++T4yj22zlxK+9XW2CmUza/BwN5ghFtcj+WK/3DrEZACahwZdUJ9pfiDYC1jlG+QdfcpHwUr6na1heDmdpJS3MuIqiGWG9eKXBhaz+HjP/MzBfb+IZ7tCUY7cpGThnPc3nBl32wYjCTR+nuqaljLeq22zX9VuHbm65Net6XODNcza42ocsDF6fm81Wayvs1dfzz3zxgpxYn8tPvLrjEvI32OHcoJRohYADs6OjoL5Epv37lOd4eyclUzZBV//BKMdsjAm1qaR0fISr9SFRRBuE1UAA3htkR7dpUHaUH+85ajWYBdoT4JRBliuVnj/d3MCGnwXzxzs+VQnGNtLbF2jFhmKmunk+Zy7HR2A1EEDxaNlRPm7qmIm87nbEzTgQF5G9gHdKM1sRmUcf919d02Pet7aM8XcvVvDFIcFEaadg22GpJsBqIICKG97tqMGXbinI+I5HjJ6BE+w4y6UBV8C1m3/ff7VFnhoZdOmtm1SBmVxnlbGJPi4yvEOOINsFUGwafOmWgo/7u1ezHDcRRMXenQduDIbnNsihKDB3fe/L/iboqsJC63HKvu/N9lIYV31ryHYBlIWWYbIKviS7doOg8sLIuF0paGi7CP2C3wRdIfNTqqY2VYCOjyBHsAgboFyyCb4cn2yhkIxxm/GsOTy3pelU0NW/u8VUcrFxmZvo4+yVADvbbYdF2AAlpMFXeuuFeAF7GcHx/M92WmOMJCPntI3mJOiq0kLrUcrcRH+Wjo8gV7AIG6CU4uuFHF6oWV8q2DMMZxjzH+RImkkT43iG2EnQFbHRk2eDKqrsTfRxLsdHEO5GAig1zXpxYO6SQyaq1PxHGMGwy2Mg6FJKmNlpOdwGXbZ5vgKLJs9T9ib6OLfjIzB7B6Ds+m0JDkuNASPoqjx3x4DuoaUU2Aqg495lG3TZyfPV1qaKCWpmm9xBtgug9IyzkTMUGewRBe+lERv1y4sVv4W3Kk30cZ2/SmbPuAs2DeNORoAyqwXsrBrAASPoqjx3gbdJoTWq+eNtKSvyHXIsSGNAWdFUqYk+jt3eYruBYakA6VhaWd1eXF59nutdf0GA1zc447IkyOw2caTnsijg52nsntZMV4MqrkpN9HHap6FLQckRDEsFSNVGyPRJgq89He+T9UVOGEXOGorn6r1KvufCV5Kd+oOcMU2Xrwc+qj9lcttAPxTI1Uvl07xVaqIfwVlzLFYDAWSiJWnq5+Hny59s9uunjGblObthxhz6toQYctElZ3hBXg+Jj089f+lFTRqLuIcC+nypS9XWpgoLji9vuxsfgdVAAJnplz42wohfyomCF5dvvbQZMNuL4o6eiH6Q4I6cVUUYWS7Q9pYuuWTMw6XrqzMHXlK6b4VH9fdE6e4GndPxAUvLq12uaJmxik30cfb5X1l9xo6uYgfZri1cyQJkzazLmWw9DCKSIKyrwY2h4E1gJMiRct60r0nb13I0vxEesdMZjobMzwSVV5OER0husaFNOfYbNUNPJplQbyszvXpTyvaP5aNFGZiz/2+kxFTRWUtVbaKPC4i25eB39PyzfaOWn2wRAOSlIW/sOn9xXU4mREd1Wlpe68ivD+XjQ2DMYTAi0xCxWYgoakhg9EN4pCchJtckCHQ3egIKS4OilBI+2vu4oce7HMtvAgq6Qaxp/9Qx/pmbEv9k2hJjgy6dUB5eOnqQRqe+76raRB+nB7+UJXT4YYsckDd1vTJG0AXgkWFjsJxsWpLZpnDMZxltcU5PajvyoIg065nOKjk93uVYbsqPFPLp/3JyjJtUj/WR7JwuO6G8FhRiQ7drFW+iP+F4fEQDw1IB4BsmjQXaUFRRBbOeJ7sXP/76asvlsMyCaBNYds2H22GpWA0EAHFt3eNIAAOuzztpMo4a/4P4L8IweEQVUvUm+rMMO21wxWogADhRM3SfAM5wXGVJhZQonwXH9WvkwKmg63cptUm18xlVBJroT3M7PgLZLgDoY57sbjKongJku9q/7b9+qG1YLr7P4OxvzB1f3jSu52d4Ck30p9nevsBp0I1sF0DFacD127vdTQIYo0aSBWUv93F+qM337g5/4SIr903QpSfeqCJpYDTRf0vvZCWHsAgboLoQcMEkNAvKgblLftGAqxWfb2ezcgmDw2DUb/a/cOnvMmkTfMNVCjUGi7ABKigi8wgBF0zK7gIOjC995e2zAddQ0mpQMO4/1P5Vf+hpus8JNNGP57qxEauBAKpD21PY0M2/77/CrD6Yik5RyDvw0qb5g/3dm+M2OOgwcUpgbNBV9tldzEGbYCTXjY1YhA2QDEdmx/deWyMX6RJsPfm4v3vVvocAzEADr5qhq1kf78OLBW2aP+/z7A0hCc6PwXn/scyzu2psugTncVhexiJsgCQO3r3a0WAmjIJr2vrhWQDWNlJKDK4ca7C1SQAJaWCjIxo0iKeUDS8WgvnetSkuFmY+P85d9Al6V0HI/L5cK4LMIZroz1fr1XfCS0dPXT3vWIQNkNzv/fetDf35X3683ZwLuMWG75iIm5zhe7QEWZ3IsM71ayOrBWmw/cVEm82V1e0wok1j6IbjPY1tCbbe1OaPtz5OeV5Kcn68MOiySylXVp9xqWYuMQKuC+gBv7S89oKd7cUq7iLsf0uqm+BC/5LUPJWQvAe2/3Nl1ckxUK/3nF10DAIw/bCvKQ3CarWoycxNY8wPhs3CcN/irDQLQCaQsgt35Ot9kPNAt3blqJ3HxVNRXoe+Hi+jBPXeVq9X3yYH0vpeB/PdNvTndgQR87oe39PsCj57HP/L8M4/EsyN0/OjJBGuymM3VdClj9HE2x7lBPw+6QvYF4b42ccL6rZAtLiyuiEH9nNyp3sgJRICgMxoP6WeHOZiWQIzJmPAg7LlF/lRTxDITIPPJLht6HFtIsk4BXwqANJjOQqDw6gWHf7Do8G8F2a6hiSV/Mgw7VEJoIl+MvrGzOSUXYSNcgRAdgaBk350CaBEBsFUlwokmPQT9URZlhVBaKK/mNTRG5zCYFOsBgIAgKqaOOhS5VgRhCb6izR/vN38wrRDbpsWh7AaCAAAKmni8qLS5jE5Yd4vdpkRTfSjSGarFUV0g4xZDylqTtzsN4NBtqtNAAAAFTLTuXVx+dZL+aPrVEBoou+zw0qP51sh8x2KeD3rkSC1+d53aNIFAIAqmSrTNVQ7nr8fXjpqFXF2V5Wb6LVPK2KzzsR3ws/clJRT//kzaea1Rgs/z7fkhx0CAACoiJmCLjvD6ae1JxzxUyqYqjXRa9nwC/N6QOZOyNqjNbgfMYdAK07++gYBAABUyExBl9IVQYsrq3emGVCWv/I30duyYa++HhLd0LKhBFoLRouq5BnD2MUIAACVMnPQpYq3IqicTfSnyoZHsSA452zWeRgzgwAAoGISBV1FWxEk+Z4PVBJjy4YFgaALAACqxkkqZGl59RNTAXp02Nw9ePeqkM3bZ8uGRV5ArrPePmIdEAAAVEyiTNdQZKgQs7uK1kRfxLLhZMqx2QAAAGAazs7e3y+vbUn57gF5yxwe7L/6jjw2yGY1h2XDQmQPp4QsFwAAVJWTTJf9QseXN6PLPY8DBT+b6E/KhqyzsySbZTy929ABw3wYBOYmAQAAVJCzoEtndy1eX3skZ9aX5CGfmuh1t2FkojtsqPW1bGgc5h39YwMurt3svP2lSwAAABXkLOhS2qS+uLLa9nF2V56T6M+WDUOKGlQtbclw3UfABQAAVeY06FK+zu7KuoleA63oaH7j68qd8pYNx2hLJu+N/vjb2902AQAAVFwqBa2ln9Ye+rUiKJsmep2dFUV0Q8uG8ssWVYiWD9mYjgSWPwfzR9tYZg0AAHBaal1EUmbc86jM2D7Y33XewB0vGxqme0WenTULDbQiQy/k370zV+91EGgBAACM57y8OBSGwaNaEL0nD7hsoh9XNixzE/wZJ2XDg/3XbQIAAICJpBZ0/f63XzpLK6tPfFgRpGUvSiBeNuzfbTjozCr8kNKLoWwIAADgRmpBlwp69a3ocu9e3rO7DE9X9jtbNgyZFiqUyTpVNqzNH6NsCAAA4EDqocT3kiXyYEXQhT1d8ZU7xFo2rFZ/FuFuQwAAgFRlkr/xZEXQtgRe9+O/MSwbSoClwVaTKgRlQwAAgGxlEnQ1m+sL4aWjTx5kj7p2HZAxhxTxOu42RKAFAACQlcw6lRavr637uiKo5FA2BAAA8ECm7eGeze4qJZQNAQAA/JTq3Ytn+boiqOhwtyEAAID/Mh+E4N+KoMJC2RAAAKBAcpk+hTLj9FA2BAAAKLZMy4tDTPTEVGwh9CxQNgQAACiP3OasezK7y0coGwIAAJRQLpku+xcfX96MLvfu5L0iKG8oGwIAAFRDrhsFPVkRlDkMKQUAAKie3Nc4L15f3Zbv4h6VH8qGAAAAFZZbeXGo9q/6w/DS0Z2yze5C2RAAAADics90qbLM7kLZEAAAAMbxIuhSBZ7dhbIhAAAAXCj38uJQUVYEoWwIAAAAs/Am06WWVlY3mekxeQZlQwAAAEjKq6BLLS2vvWfiJuUPZUMAAABwxpvy4lBk+FEes7tQNgQAAIA0eZfpUlmtCELZEAAAALLiXaZLpbwi6KRseLD/uk0AAAAAGfAy06X+8uPtZs2Ee0nvZkTZEAAAAHzgbdClNPCaC6KX02a8UDYEAAAA33gddKnmymojjGhzgv2MuNsQAAAAvOV90DVkgy+iFjM3jTE/kGSzJJN1aNh8QNkQAAAAfPd/xqE/XSojtFQAAAAASUVORK5CYII=;" parent="1" vertex="1">
          <mxGeometry x="685.44" y="355" width="93.56" height="30" as="geometry" />
        </mxCell>
        <mxCell id="pP8O4rAKiQuBhvKMOiU7-13" value="members" style="swimlane;fontStyle=0;childLayout=stackLayout;horizontal=1;startSize=26;fillColor=none;horizontalStack=0;resizeParent=1;resizeParentMax=0;resizeLast=0;collapsible=1;marginBottom=0;html=1;" parent="1" vertex="1">
          <mxGeometry x="563" y="232" width="95" height="78" as="geometry" />
        </mxCell>
        <mxCell id="pP8O4rAKiQuBhvKMOiU7-14" value="id" style="text;strokeColor=none;fillColor=none;align=left;verticalAlign=top;spacingLeft=4;spacingRight=4;overflow=hidden;rotatable=0;points=[[0,0.5],[1,0.5]];portConstraint=eastwest;whiteSpace=wrap;html=1;" parent="pP8O4rAKiQuBhvKMOiU7-13" vertex="1">
          <mxGeometry y="26" width="95" height="26" as="geometry" />
        </mxCell>
        <mxCell id="pP8O4rAKiQuBhvKMOiU7-15" value="name" style="text;strokeColor=none;fillColor=none;align=left;verticalAlign=top;spacingLeft=4;spacingRight=4;overflow=hidden;rotatable=0;points=[[0,0.5],[1,0.5]];portConstraint=eastwest;whiteSpace=wrap;html=1;" parent="pP8O4rAKiQuBhvKMOiU7-13" vertex="1">
          <mxGeometry y="52" width="95" height="26" as="geometry" />
        </mxCell>
        <mxCell id="pP8O4rAKiQuBhvKMOiU7-16" value="activities" style="swimlane;fontStyle=0;childLayout=stackLayout;horizontal=1;startSize=26;horizontalStack=0;resizeParent=1;resizeParentMax=0;resizeLast=0;collapsible=1;marginBottom=0;html=1;" parent="1" vertex="1">
          <mxGeometry x="671" y="190" width="95" height="78" as="geometry" />
        </mxCell>
        <mxCell id="pP8O4rAKiQuBhvKMOiU7-17" value="created_at" style="text;strokeColor=none;fillColor=none;align=left;verticalAlign=top;spacingLeft=4;spacingRight=4;overflow=hidden;rotatable=0;points=[[0,0.5],[1,0.5]];portConstraint=eastwest;whiteSpace=wrap;html=1;" parent="pP8O4rAKiQuBhvKMOiU7-16" vertex="1">
          <mxGeometry y="26" width="95" height="26" as="geometry" />
        </mxCell>
        <mxCell id="pP8O4rAKiQuBhvKMOiU7-18" value="id" style="text;strokeColor=none;fillColor=none;align=left;verticalAlign=top;spacingLeft=4;spacingRight=4;overflow=hidden;rotatable=0;points=[[0,0.5],[1,0.5]];portConstraint=eastwest;whiteSpace=wrap;html=1;" parent="pP8O4rAKiQuBhvKMOiU7-16" vertex="1">
          <mxGeometry y="52" width="95" height="26" as="geometry" />
        </mxCell>
        <mxCell id="pP8O4rAKiQuBhvKMOiU7-19" value="" style="rounded=0;whiteSpace=wrap;html=1;labelBackgroundColor=none;fillColor=none;dashed=1;container=1;pointerEvents=0;collapsible=0;recursiveResize=0;" parent="1" vertex="1">
          <mxGeometry x="549" y="180" width="230" height="140" as="geometry" />
        </mxCell>
        <mxCell id="pP8O4rAKiQuBhvKMOiU7-20" value="" style="edgeStyle=none;orthogonalLoop=1;jettySize=auto;html=1;rounded=0;dashed=1;endArrow=none;endFill=0;entryX=0;entryY=0.5;entryDx=0;entryDy=0;" parent="pP8O4rAKiQuBhvKMOiU7-19" target="pP8O4rAKiQuBhvKMOiU7-19" edge="1">
          <mxGeometry width="80" relative="1" as="geometry">
            <mxPoint x="-30" y="99.5" as="sourcePoint" />
            <mxPoint x="-10" y="100" as="targetPoint" />
            <Array as="points" />
          </mxGeometry>
        </mxCell>
        <mxCell id="pP8O4rAKiQuBhvKMOiU7-26" value="" style="edgeStyle=none;orthogonalLoop=1;jettySize=auto;html=1;rounded=0;curved=1;startArrow=classic;startFill=1;endArrow=none;endFill=0;" parent="1" edge="1">
          <mxGeometry width="80" relative="1" as="geometry">
            <mxPoint x="400" y="305" as="sourcePoint" />
            <mxPoint x="400" y="255" as="targetPoint" />
            <Array as="points">
              <mxPoint x="450" y="305" />
              <mxPoint x="450" y="255" />
            </Array>
          </mxGeometry>
        </mxCell>
      </root>
    </mxGraphModel>
  </diagram>
</mxfile>
